<?xml version="1.0" encoding="UTF-8" standalone="no"?>
<svg
   xmlns:dc="http://purl.org/dc/elements/1.1/"
   xmlns:cc="http://creativecommons.org/ns#"
   xmlns:rdf="http://www.w3.org/1999/02/22-rdf-syntax-ns#"
   xmlns:svg="http://www.w3.org/2000/svg"
   xmlns="http://www.w3.org/2000/svg"
   xmlns:sodipodi="http://sodipodi.sourceforge.net/DTD/sodipodi-0.dtd"
   xmlns:inkscape="http://www.inkscape.org/namespaces/inkscape"
   inkscape:version="1.0 (4035a4fb49, 2020-05-01)"
   id="svg8"
   version="1.1"
   viewBox="0 0 396.43855 42.904656"
   height="162.15933"
   width="1498.3505"
   sodipodi:docname="canine-plus-nine-logo.svg">
  <defs
     id="defs2" />
  <sodipodi:namedview
     units="px"
     inkscape:pagecheckerboard="true"
     fit-margin-bottom="0"
     fit-margin-right="0"
     fit-margin-left="0"
     fit-margin-top="0"
     inkscape:showpageshadow="false"
     showgrid="false"
     inkscape:document-rotation="0"
     inkscape:current-layer="svg8"
     inkscape:document-units="px"
     inkscape:cy="-13.386799"
     inkscape:cx="611.31421"
     inkscape:zoom="0.35"
     inkscape:pageshadow="2"
     inkscape:pageopacity="0"
     borderopacity="1.0"
     bordercolor="#666666"
     pagecolor="#262626"
     id="base"
     inkscape:window-width="1366"
     inkscape:window-height="745"
     inkscape:window-x="-8"
     inkscape:window-y="-8"
     inkscape:window-maximized="1"
     inkscape:snap-global="false"
     showguides="true"
     inkscape:guide-bbox="true" />
  <metadata
     id="metadata5">
    <rdf:RDF>
      <cc:Work
         rdf:about="">
        <dc:format>image/svg+xml</dc:format>
        <dc:type
           rdf:resource="http://purl.org/dc/dcmitype/StillImage" />
        <dc:title />
      </cc:Work>
    </rdf:RDF>
  </metadata>
  <g
     inkscape:export-ydpi="123.015"
     inkscape:export-xdpi="123.015"
     id="g982"
     transform="translate(-1.3184178e-6,0.00596707)">
    <g
       id="g956">
      <path
         style="color:#000000;font-style:normal;font-variant:normal;font-weight:normal;font-stretch:normal;font-size:medium;line-height:normal;font-family:sans-serif;font-variant-ligatures:normal;font-variant-position:normal;font-variant-caps:normal;font-variant-numeric:normal;font-variant-alternates:normal;font-variant-east-asian:normal;font-feature-settings:normal;font-variation-settings:normal;text-indent:0;text-align:start;text-decoration:none;text-decoration-line:none;text-decoration-style:solid;text-decoration-color:#000000;letter-spacing:normal;word-spacing:normal;text-transform:none;writing-mode:lr-tb;direction:ltr;text-orientation:mixed;dominant-baseline:auto;baseline-shift:baseline;text-anchor:start;white-space:normal;shape-padding:0;shape-margin:0;inline-size:0;clip-rule:nonzero;display:inline;overflow:visible;visibility:visible;isolation:auto;mix-blend-mode:normal;color-interpolation:sRGB;color-interpolation-filters:linearRGB;solid-color:#000000;solid-opacity:1;vector-effect:none;fill:#bf755a;fill-opacity:1;fill-rule:nonzero;stroke:none;stroke-width:1.77827;stroke-linecap:butt;stroke-linejoin:miter;stroke-miterlimit:4;stroke-dasharray:none;stroke-dashoffset:0;stroke-opacity:1;color-rendering:auto;image-rendering:auto;shape-rendering:auto;text-rendering:auto;enable-background:accumulate;stop-color:#000000"
         d="m 17.92624,21.78559 c -2.75344,-0.84572 -5.98044,-0.31506 -8.4057,1.2118 -2.67441,1.82678 -5.1237,4.15785 -6.68712,7.02432 -1.43064,1.96879 -0.51676,5.02735 1.83107,5.77109 2.80596,0.95492 5.84016,-0.23545 8.69923,0.49161 2.50044,0.37529 4.25394,2.27924 6.149,3.75682 1.58571,1.34769 4.20415,1.83012 5.74639,0.15205 1.35479,-1.77769 0.93632,-4.25007 0.59263,-6.30777 -0.93064,-3.45525 -1.94583,-7.09827 -4.38019,-9.82935 -0.96946,-1.11508 -2.20062,-1.85733 -3.54531,-2.2705 z"
         id="path1008" />
      <path
         style="color:#000000;font-style:normal;font-variant:normal;font-weight:normal;font-stretch:normal;font-size:medium;line-height:normal;font-family:sans-serif;font-variant-ligatures:normal;font-variant-position:normal;font-variant-caps:normal;font-variant-numeric:normal;font-variant-alternates:normal;font-variant-east-asian:normal;font-feature-settings:normal;font-variation-settings:normal;text-indent:0;text-align:start;text-decoration:none;text-decoration-line:none;text-decoration-style:solid;text-decoration-color:#000000;letter-spacing:normal;word-spacing:normal;text-transform:none;writing-mode:lr-tb;direction:ltr;text-orientation:mixed;dominant-baseline:auto;baseline-shift:baseline;text-anchor:start;white-space:normal;shape-padding:0;shape-margin:0;inline-size:0;clip-rule:nonzero;display:inline;overflow:visible;visibility:visible;isolation:auto;mix-blend-mode:normal;color-interpolation:sRGB;color-interpolation-filters:linearRGB;solid-color:#000000;solid-opacity:1;vector-effect:none;fill:#bf755a;fill-opacity:1;fill-rule:nonzero;stroke:none;stroke-width:0.0896231;stroke-linecap:butt;stroke-linejoin:miter;stroke-miterlimit:4;stroke-dasharray:none;stroke-dashoffset:0;stroke-opacity:1;color-rendering:auto;image-rendering:auto;shape-rendering:auto;text-rendering:auto;enable-background:accumulate;stop-color:#000000"
         d="M 5.25551,10.36261 C 3.8558,9.91563 2.21496,10.32921 1.31456,11.61403 -1.0908,15.0517 -0.13018,20.64635 3.66378,22.70015 5.26147,23.51122 7.14493,22.67455 8.04589,21.24524 9.96478,18.18552 9.34264,13.75029 6.72966,11.28298 6.31488,10.8458 5.80307,10.53802 5.2553,10.36326 Z"
         id="path1014" />
      <path
         style="color:#000000;font-style:normal;font-variant:normal;font-weight:normal;font-stretch:normal;font-size:medium;line-height:normal;font-family:sans-serif;font-variant-ligatures:normal;font-variant-position:normal;font-variant-caps:normal;font-variant-numeric:normal;font-variant-alternates:normal;font-variant-east-asian:normal;font-feature-settings:normal;font-variation-settings:normal;text-indent:0;text-align:start;text-decoration:none;text-decoration-line:none;text-decoration-style:solid;text-decoration-color:#000000;letter-spacing:normal;word-spacing:normal;text-transform:none;writing-mode:lr-tb;direction:ltr;text-orientation:mixed;dominant-baseline:auto;baseline-shift:baseline;text-anchor:start;white-space:normal;shape-padding:0;shape-margin:0;inline-size:0;clip-rule:nonzero;display:inline;overflow:visible;visibility:visible;isolation:auto;mix-blend-mode:normal;color-interpolation:sRGB;color-interpolation-filters:linearRGB;solid-color:#000000;solid-opacity:1;vector-effect:none;fill:#bf755a;fill-opacity:1;fill-rule:nonzero;stroke:none;stroke-width:0.0896231;stroke-linecap:butt;stroke-linejoin:miter;stroke-miterlimit:4;stroke-dasharray:none;stroke-dashoffset:0;stroke-opacity:1;color-rendering:auto;image-rendering:auto;shape-rendering:auto;text-rendering:auto;enable-background:accumulate;stop-color:#000000"
         d="m 34.35734,18.5728 c -3.36014,-0.82408 -6.64114,1.76732 -7.91525,4.7412 -1.12299,2.08167 -0.85916,5.41258 1.61547,6.37279 3.54047,1.04864 7.11345,-1.97517 8.2175,-5.18706 0.88714,-2.07564 0.42985,-5.07022 -1.91772,-5.92693 z"
         id="path1020" />
      <path
         style="color:#000000;font-style:normal;font-variant:normal;font-weight:normal;font-stretch:normal;font-size:medium;line-height:normal;font-family:sans-serif;font-variant-ligatures:normal;font-variant-position:normal;font-variant-caps:normal;font-variant-numeric:normal;font-variant-alternates:normal;font-variant-east-asian:normal;font-feature-settings:normal;font-variation-settings:normal;text-indent:0;text-align:start;text-decoration:none;text-decoration-line:none;text-decoration-style:solid;text-decoration-color:#000000;letter-spacing:normal;word-spacing:normal;text-transform:none;writing-mode:lr-tb;direction:ltr;text-orientation:mixed;dominant-baseline:auto;baseline-shift:baseline;text-anchor:start;white-space:normal;shape-padding:0;shape-margin:0;inline-size:0;clip-rule:nonzero;display:inline;overflow:visible;visibility:visible;isolation:auto;mix-blend-mode:normal;color-interpolation:sRGB;color-interpolation-filters:linearRGB;solid-color:#000000;solid-opacity:1;vector-effect:none;fill:#bf755a;fill-opacity:1;fill-rule:nonzero;stroke:none;stroke-width:0.0896231;stroke-linecap:butt;stroke-linejoin:miter;stroke-miterlimit:4;stroke-dasharray:none;stroke-dashoffset:0;stroke-opacity:1;color-rendering:auto;image-rendering:auto;shape-rendering:auto;text-rendering:auto;enable-background:accumulate;stop-color:#000000"
         d="m 16.21242,1.74312 c -1.92151,-0.54364 -4.00593,0.93051 -4.87101,2.65514 -1.75234,3.40485 -1.49955,8.38788 1.90035,10.68913 0.32785,0.18527 0.68899,0.30575 1.06106,0.3608 2.66728,0.3626 4.6223,-2.14846 5.22704,-4.47703 0.8612,-3.05198 0.3724,-7.0407 -2.50888,-8.86594 C 16.75712,1.94001 16.48689,1.82108 16.21239,1.7434 Z"
         id="path1026" />
      <path
         style="color:#000000;font-style:normal;font-variant:normal;font-weight:normal;font-stretch:normal;font-size:medium;line-height:normal;font-family:sans-serif;font-variant-ligatures:normal;font-variant-position:normal;font-variant-caps:normal;font-variant-numeric:normal;font-variant-alternates:normal;font-variant-east-asian:normal;font-feature-settings:normal;font-variation-settings:normal;text-indent:0;text-align:start;text-decoration:none;text-decoration-line:none;text-decoration-style:solid;text-decoration-color:#000000;letter-spacing:normal;word-spacing:normal;text-transform:none;writing-mode:lr-tb;direction:ltr;text-orientation:mixed;dominant-baseline:auto;baseline-shift:baseline;text-anchor:start;white-space:normal;shape-padding:0;shape-margin:0;inline-size:0;clip-rule:nonzero;display:inline;overflow:visible;visibility:visible;isolation:auto;mix-blend-mode:normal;color-interpolation:sRGB;color-interpolation-filters:linearRGB;solid-color:#000000;solid-opacity:1;vector-effect:none;fill:#bf755a;fill-opacity:1;fill-rule:nonzero;stroke:none;stroke-width:0.0896231;stroke-linecap:butt;stroke-linejoin:miter;stroke-miterlimit:4;stroke-dasharray:none;stroke-dashoffset:0;stroke-opacity:1;color-rendering:auto;image-rendering:auto;shape-rendering:auto;text-rendering:auto;enable-background:accumulate;stop-color:#000000"
         d="m 29.25845,5.63008 c -0.0758,-0.0224 -0.15446,-0.0427 -0.23344,-0.0605 -3.23093,-0.42023 -5.92139,2.30074 -7.05123,5.08498 -1.16054,2.48448 -1.04965,6.17398 1.61967,7.63771 0.38897,0.20657 0.82951,0.30371 1.2674,0.31919 3.78734,-0.0882 6.58103,-3.67636 7.12727,-7.19598 C 32.51703,9.19695 31.61019,6.3255 29.25839,5.63006 Z"
         id="path1032" />
    </g>
    <g
       transform="translate(0,-0.00596707)"
       id="g949">
      <g
         id="g930">
        <path
           d="m 73.370046,34.4713 q 0,0.65989 -0.754158,2.26247 -2.828092,6.15896 -10.809595,6.15896 -7.510154,0 -11.595176,-5.53049 -3.582249,-4.87061 -3.582249,-12.66357 0,-8.5157 4.116444,-15.90016 Q 55.615915,0 63.471725,0 q 2.765245,0 5.561914,2.23105 3.016631,2.35675 3.016631,5.05914 0,2.07394 -2.011088,2.07394 -0.942697,0 -1.822548,-1.38262 -1.445469,-2.2939 -1.696855,-2.57671 -1.225506,-1.38262 -3.173747,-1.38262 -5.938993,0 -9.646935,7.88723 -3.048054,6.47319 -3.048054,13.16634 0,5.90757 2.576705,9.67836 2.985208,4.3364 8.609968,4.3364 6.504611,0 8.327159,-5.46764 0.911274,-0.31423 1.885395,-0.31423 1.319776,0 1.319776,1.16266 z"
           style="font-style:normal;font-variant:normal;font-weight:normal;font-stretch:normal;font-size:64.3548px;line-height:1.25;font-family:'SF Cartoonist Hand';-inkscape-font-specification:'SF Cartoonist Hand';letter-spacing:1.05833px;fill:#5e92d4;fill-opacity:1;stroke:none;stroke-width:1.60887"
           id="path978" />
        <path
           d="m 99.912624,40.78737 q -1.445469,1.66543 -2.482436,1.66543 -0.911274,0 -1.131237,-2.76524 -4.053598,3.20517 -8.672814,3.20517 -4.933449,0 -7.824387,-3.80222 -2.576706,-3.42513 -2.576706,-8.54712 0,-5.2791 4.022175,-9.3327 4.053598,-4.0536 9.364126,-4.0536 2.796668,0 5.310527,1.22551 0.377079,-1.53974 1.885395,-1.53974 2.105357,0 2.105357,4.49352 0,2.35675 -0.18854,7.00739 -0.188539,4.61921 -0.188539,6.97596 0,2.92236 0.377079,5.46764 z M 96.047565,23.09608 q -0.754158,-0.15711 -2.702398,-1.06839 -1.476893,-0.69131 -2.828092,-0.69131 -3.707943,0 -6.410341,2.92236 -2.670976,2.92237 -2.670976,6.63031 0,3.04805 1.476893,5.24768 1.634008,2.51386 4.556369,2.51386 4.399254,0 8.358583,-4.08502 0,-1.97967 0,-5.71903 0.219962,-4.02218 0.219962,-5.75046 z"
           style="font-style:normal;font-variant:normal;font-weight:normal;font-stretch:normal;font-size:64.3548px;line-height:1.25;font-family:'SF Cartoonist Hand';-inkscape-font-specification:'SF Cartoonist Hand';letter-spacing:1.05833px;fill:#5e92d4;fill-opacity:1;stroke:none;stroke-width:1.60887"
           id="path980" />
        <path
           d="m 124.66408,29.6007 q 0,1.85397 -0.31423,5.62476 -0.28281,3.73936 -0.28281,5.62476 0,0.817 -0.5342,1.41404 -0.53419,0.56562 -1.31977,0.56562 -2.04251,0 -2.04251,-3.86506 0,-1.60258 0.21996,-4.71348 0.25138,-3.14233 0.25138,-4.77634 0,-8.67281 -5.46764,-8.67281 -4.17929,0 -6.44176,4.11644 v 14.329 q 0,3.6451 -1.97967,3.6451 -1.82255,0 -1.82255,-2.51386 0,-3.48798 0,-10.6839 0.1257,-3.80222 0.1257,-11.37522 1.53974,-0.91127 2.54528,-0.91127 1.09981,0 1.03697,2.10536 2.89093,-2.51386 6.69315,-2.51386 9.3327,0 9.3327,12.60072 z"
           style="font-style:normal;font-variant:normal;font-weight:normal;font-stretch:normal;font-size:64.3548px;line-height:1.25;font-family:'SF Cartoonist Hand';-inkscape-font-specification:'SF Cartoonist Hand';letter-spacing:1.05833px;fill:#5e92d4;fill-opacity:1;stroke:none;stroke-width:1.60887"
           id="path982" />
        <path
           style="font-style:normal;font-variant:normal;font-weight:normal;font-stretch:normal;font-size:64.3548px;line-height:1.25;font-family:'SF Cartoonist Hand';-inkscape-font-specification:'SF Cartoonist Hand';letter-spacing:1.05833px;fill:#5e92d4;fill-opacity:1;stroke:none;stroke-width:1.60887"
           d="m 133.20114,19.45099 q 0.37708,2.13678 -0.15712,5.84472 -0.15711,4.30499 -0.21996,5.8133 -0.0628,2.82809 -0.0628,5.62476 -0.15712,3.26802 -0.59704,5.62476 -1.16266,0.5342 -2.01109,0.5342 -1.25693,0 -1.25693,-1.72828 0,-1.91682 0,-5.31053 0.28281,-3.80221 0.28281,-11.24952 0,-3.55083 0.43992,-5.21626 0.47135,-1.69685 1.91682,-1.69685 1.66544,0 1.66544,1.7597 z"
           id="path984" />
        <path
           d="m 157.44982,29.6007 q 0,1.85397 -0.31423,5.62476 -0.28281,3.73936 -0.28281,5.62476 0,0.817 -0.53419,1.41404 -0.5342,0.56562 -1.31978,0.56562 -2.04251,0 -2.04251,-3.86506 0,-1.60258 0.21996,-4.71348 0.25139,-3.14233 0.25139,-4.77634 0,-8.67281 -5.46765,-8.67281 -4.17929,0 -6.44176,4.11644 v 14.329 q 0,3.6451 -1.97967,3.6451 -1.82254,0 -1.82254,-2.51386 0,-3.48798 0,-10.6839 0.12569,-3.80222 0.12569,-11.37522 1.53974,-0.91127 2.54528,-0.91127 1.09982,0 1.03697,2.10536 2.89094,-2.51386 6.69315,-2.51386 9.3327,0 9.3327,12.60072 z"
           style="font-style:normal;font-variant:normal;font-weight:normal;font-stretch:normal;font-size:64.3548px;line-height:1.25;font-family:'SF Cartoonist Hand';-inkscape-font-specification:'SF Cartoonist Hand';letter-spacing:1.05833px;fill:#5e92d4;fill-opacity:1;stroke:none;stroke-width:1.60887"
           id="path986" />
        <path
           d="m 184.49517,37.26797 q 0,0.59704 -0.59704,1.31977 -1.38262,1.82255 -4.49353,3.1109 -2.92236,1.19409 -5.43622,1.19409 -4.99629,0 -8.67281,-3.70795 -3.6451,-3.73936 -3.6451,-8.73566 0,-4.93345 3.42514,-9.01847 3.64509,-4.3364 8.48427,-4.3364 3.36229,0 5.93899,2.85951 2.19963,2.38817 3.20518,6.00184 0.34565,1.13124 0.34565,1.66543 0,1.31978 -1.82255,1.85397 -2.63955,0.81701 -10.30682,0.81701 -3.01663,0 -5.15341,-0.15712 0,3.48798 2.38817,6.03326 2.38816,2.54529 5.81329,2.54529 2.04251,0 4.9963,-1.66544 2.95379,-1.66543 3.42513,-1.66543 0.81701,0 1.44547,0.5342 0.65989,0.53419 0.65989,1.3512 z m -5.8133,-11.31237 q -1.69685,-4.77633 -5.31053,-4.77633 -1.97966,0 -4.02217,1.88539 -1.63401,1.53974 -2.67098,3.67652 3.17375,-0.0314 12.00368,-0.78558 z"
           style="font-style:normal;font-variant:normal;font-weight:normal;font-stretch:normal;font-size:64.3548px;line-height:1.25;font-family:'SF Cartoonist Hand';-inkscape-font-specification:'SF Cartoonist Hand';letter-spacing:1.05833px;fill:#5e92d4;fill-opacity:1;stroke:none;stroke-width:1.60887"
           id="path988" />
        <path
           d="m 233.76234,16.02586 q 0,6.59888 -6.31607,9.80405 -4.93345,2.5767 -12.19222,2.5767 -3.04805,0 -5.65618,-0.4085 v 12.00368 q -0.0628,2.89094 -1.88539,2.89094 -1.72828,0 -1.72828,-1.66544 0,-2.5767 0,-7.07022 0.15712,-5.05915 0.15712,-7.03881 -2.23105,-0.47135 -2.23105,-2.23105 0,-0.91127 0.65988,-1.50832 0.65989,-0.59704 1.57117,-0.37708 0.0628,-6.37891 0.0628,-19.10533 -1.13124,0.1257 -2.26248,0.21997 -1.16266,-1.3512 -1.16266,-2.41959 0,-1.69686 8.20146,-1.69686 8.79851,0 15.11458,3.51941 7.66727,4.39925 7.66727,12.50645 z m -4.11644,0.21996 q 0,-6.88169 -6.91311,-10.08686 -5.15342,-2.41959 -12.94638,-2.41959 -0.18854,8.5157 -0.18854,20.11087 2.35674,0.37708 5.12199,0.37708 5.65618,0 9.39555,-1.38262 5.53049,-1.97967 5.53049,-6.59888 z"
           style="font-style:normal;font-variant:normal;font-weight:normal;font-stretch:normal;font-size:64.3548px;line-height:1.25;font-family:'SF Cartoonist Hand';-inkscape-font-specification:'SF Cartoonist Hand';letter-spacing:1.05833px;fill:#5e92d4;fill-opacity:1;stroke:none;stroke-width:1.60887"
           id="path990" />
        <path
           d="m 241.38813,33.24579 q 0,4.80776 -0.43993,8.67282 -1.3512,0.97412 -2.41959,0.97412 -1.13123,0 -1.13123,-2.95379 0,-0.62846 0,-1.91682 0.0628,-1.3512 0.0628,-1.97966 0,-5.59334 -0.28281,-16.78001 Q 236.92599,8.04435 236.92599,2.45102 236.92599,0 238.74854,0 q 2.04251,0 2.04251,4.27356 0,0.50278 -0.0628,1.50832 0,0.97412 0,1.44547 0,4.33641 0.31423,13.00922 0.34566,8.67281 0.34566,13.00922 z"
           style="font-style:normal;font-variant:normal;font-weight:normal;font-stretch:normal;font-size:64.3548px;line-height:1.25;font-family:'SF Cartoonist Hand';-inkscape-font-specification:'SF Cartoonist Hand';letter-spacing:1.05833px;fill:#5e92d4;fill-opacity:1;stroke:none;stroke-width:1.60887"
           id="path992" />
        <path
           d="m 267.05085,41.13302 q 0,1.75971 -1.7597,1.75971 -1.44547,0 -1.82255,-1.50832 -0.15712,-0.59704 -0.15712,-2.60813 -2.95378,4.11645 -7.4473,4.11645 -10.08686,0 -10.08686,-18.72826 0,-4.43067 0.56561,-5.81329 0.59705,-1.41405 1.8854,-1.41405 2.1682,0 2.1682,1.97966 0,1.22551 -0.18854,3.77079 -0.18854,2.51386 -0.18854,3.73937 0,4.4621 1.00555,7.66727 1.50831,4.83918 4.8706,4.83918 2.95378,0 5.12199,-3.01663 1.85397,-2.60813 2.13678,-5.78188 0.0943,-1.41405 0.0943,-6.00184 -0.0314,-3.70794 0.43992,-5.97041 1.16266,-0.69132 2.26248,-0.69132 1.06839,0 1.06839,2.67098 0,0.817 -0.0628,2.48244 0,1.60258 0,11.40663 0,1.19409 0.0314,3.55083 0.0628,2.35674 0.0628,3.55082 z"
           style="font-style:normal;font-variant:normal;font-weight:normal;font-stretch:normal;font-size:64.3548px;line-height:1.25;font-family:'SF Cartoonist Hand';-inkscape-font-specification:'SF Cartoonist Hand';letter-spacing:1.05833px;fill:#5e92d4;fill-opacity:1;stroke:none;stroke-width:1.60887"
           id="path994" />
        <path
           d="m 290.73391,36.51381 q 0,2.98521 -2.92236,4.83918 -2.51386,1.53974 -5.71903,1.53974 -6.66173,0 -10.6839,-5.09057 0.53419,-2.67097 1.60258,-2.67097 -0.34565,0 2.92237,2.07393 3.29944,2.04251 6.00183,2.04251 4.02218,0 4.93345,-2.48244 -0.12569,-2.67097 -3.86506,-4.96487 -3.42513,-1.88539 -6.91311,-3.77079 -3.70794,-2.29389 -3.70794,-4.96487 0,-2.7024 2.89094,-4.4621 2.51386,-1.50831 5.37337,-1.50831 1.8854,0 4.11645,0.817 2.85951,1.00554 2.85951,2.51386 0,0.817 -0.59704,1.44547 -0.59704,0.62846 -1.38262,0.62846 -0.56562,0 -2.16821,-0.65988 -1.60258,-0.65989 -2.5767,-0.65989 -3.67652,0 -4.55637,1.91681 1.28835,1.8854 5.2791,3.80222 4.74491,2.32532 6.15896,3.45655 2.95378,2.38817 2.95378,6.15896 z"
           style="font-style:normal;font-variant:normal;font-weight:normal;font-stretch:normal;font-size:64.3548px;line-height:1.25;font-family:'SF Cartoonist Hand';-inkscape-font-specification:'SF Cartoonist Hand';letter-spacing:1.05833px;fill:#5e92d4;fill-opacity:1;stroke:none;stroke-width:1.60887"
           id="path996" />
        <path
           sodipodi:nodetypes="csccccscsscsscsccccscscsccc"
           d="m 336.32467,41.13302 c 0,1.17314 -0.91127,1.75971 -2.73382,1.75971 -0.50277,0 -0.99507,-0.28281 -1.47689,-0.84843 -0.60752,-0.75416 -1.21504,-1.791127 -1.82255,-3.1109 -0.48183,-1.110287 -0.97412,-2.220577 -1.47689,-3.33087 -5.15341,-10.6839 -10.48489,-20.288937 -15.99443,-28.81511 0.0419,2.3043733 0.0628,12.056053 0.0628,29.25504 0,0.37708 0.0209,0.942697 0.0628,1.69685 0.0629,0.75416 0.0943,1.330253 0.0943,1.72828 0,2.283427 0.37849,3.576237 -1.97967,3.42514 -2.51361,-0.161058 -1.79112,-8.316687 -1.79112,-24.95006 0.0419,-1.52926 0.0104,-3.802207 -0.0943,-6.81884 -0.10475,-3.0166333 -0.15712,-5.3000567 -0.15712,-6.85027 0,-2.28342 0.25139,-3.58224667 0.75416,-3.89648 0.14664,-0.12569333 0.64941,-0.18854 1.50832,-0.18854 0.56561,0 0.97411,0.12569333 1.2255,0.37708 1.92729,1.8225467 4.17929,4.9334467 6.756,9.3327 0.8589,1.445473 2.75477,4.881083 5.68761,10.30683 2.53481,4.713487 5.12199,9.688833 7.76154,14.92604 V 17.40848 c 0,-1.780653 -0.0419,-4.472577 -0.1257,-8.07577 -0.0838,-3.6241533 -0.12569,-6.3265533 -0.12569,-8.1072 0,-0.31423333 0.31423,-0.61799333 0.9427,-0.91128 C 333.90499,0.10474333 334.35539,0 334.75342,0 c 0.43993,0 0.74368,0.30376 0.91127,0.91128 0.43993,1.4664133 0.65989,4.71348 0.65989,9.7412 z"
           style="font-style:normal;font-variant:normal;font-weight:normal;font-stretch:normal;font-size:64.3548px;line-height:1.25;font-family:'SF Cartoonist Hand';-inkscape-font-specification:'SF Cartoonist Hand';letter-spacing:1.05833px;fill:#5e92d4;fill-opacity:1;stroke:none;stroke-width:1.60887"
           id="path998" />
        <path
           style="font-style:normal;font-variant:normal;font-weight:normal;font-stretch:normal;font-size:64.3548px;line-height:1.25;font-family:'SF Cartoonist Hand';-inkscape-font-specification:'SF Cartoonist Hand';letter-spacing:1.05833px;fill:#5e92d4;fill-opacity:1;stroke:none;stroke-width:1.60887"
           d="m 345.14454,19.45099 q 0.37708,2.13678 -0.15712,5.84472 -0.15712,4.30499 -0.21996,5.8133 -0.0628,2.82809 -0.0628,5.62476 -0.15711,3.26802 -0.59704,5.62476 -1.16266,0.5342 -2.01109,0.5342 -1.25693,0 -1.25693,-1.72828 0,-1.91682 0,-5.31053 0.28281,-3.80221 0.28281,-11.24952 0,-3.55083 0.43993,-5.21626 0.47135,-1.69685 1.91682,-1.69685 1.66543,0 1.66543,1.7597 z"
           id="path1000" />
        <path
           d="m 369.39323,29.6007 q 0,1.85397 -0.31423,5.62476 -0.28281,3.73936 -0.28281,5.62476 0,0.817 -0.5342,1.41404 -0.53419,0.56562 -1.31977,0.56562 -2.04251,0 -2.04251,-3.86506 0,-1.60258 0.21996,-4.71348 0.25138,-3.14233 0.25138,-4.77634 0,-8.67281 -5.46764,-8.67281 -4.17929,0 -6.44176,4.11644 v 14.329 q 0,3.6451 -1.97967,3.6451 -1.82255,0 -1.82255,-2.51386 0,-3.48798 0,-10.6839 0.1257,-3.80222 0.1257,-11.37522 1.53974,-0.91127 2.54528,-0.91127 1.09981,0 1.03697,2.10536 2.89093,-2.51386 6.69315,-2.51386 9.3327,0 9.3327,12.60072 z"
           style="font-style:normal;font-variant:normal;font-weight:normal;font-stretch:normal;font-size:64.3548px;line-height:1.25;font-family:'SF Cartoonist Hand';-inkscape-font-specification:'SF Cartoonist Hand';letter-spacing:1.05833px;fill:#5e92d4;fill-opacity:1;stroke:none;stroke-width:1.60887"
           id="path1002" />
        <path
           d="m 396.43856,37.26797 q 0,0.59704 -0.59704,1.31977 -1.38262,1.82255 -4.49352,3.1109 -2.92236,1.19409 -5.43622,1.19409 -4.9963,0 -8.67282,-3.70795 -3.64509,-3.73936 -3.64509,-8.73566 0,-4.93345 3.42513,-9.01847 3.64509,-4.3364 8.48427,-4.3364 3.36229,0 5.939,2.85951 2.19962,2.38817 3.20517,6.00184 0.34565,1.13124 0.34565,1.66543 0,1.31978 -1.82255,1.85397 -2.63955,0.81701 -10.30682,0.81701 -3.01663,0 -5.15341,-0.15712 0,3.48798 2.38817,6.03326 2.38816,2.54529 5.8133,2.54529 2.04251,0 4.99629,-1.66544 2.95379,-1.66543 3.42513,-1.66543 0.81701,0 1.44547,0.5342 0.65989,0.53419 0.65989,1.3512 z m -5.8133,-11.31237 q -1.69685,-4.77633 -5.31053,-4.77633 -1.97966,0 -4.02217,1.88539 -1.63401,1.53974 -2.67098,3.67652 3.17375,-0.0314 12.00368,-0.78558 z"
           style="font-style:normal;font-variant:normal;font-weight:normal;font-stretch:normal;font-size:64.3548px;line-height:1.25;font-family:'SF Cartoonist Hand';-inkscape-font-specification:'SF Cartoonist Hand';letter-spacing:1.05833px;fill:#5e92d4;fill-opacity:1;stroke:none;stroke-width:1.60887"
           id="path1004" />
      </g>
      <path
         id="path1038"
         d="m 134.48864,3.23384 c -2.18654,-0.53625 -4.32158,1.15005 -5.15068,3.08523 -0.73076,1.3546 -0.55908,3.52212 1.05123,4.14695 2.30389,0.68238 4.62892,-1.2853 5.34736,-3.37536 0.57729,-1.35068 0.27971,-3.29933 -1.24791,-3.85682 z"
         style="color:#000000;font-style:normal;font-variant:normal;font-weight:normal;font-stretch:normal;font-size:medium;line-height:normal;font-family:sans-serif;font-variant-ligatures:normal;font-variant-position:normal;font-variant-caps:normal;font-variant-numeric:normal;font-variant-alternates:normal;font-variant-east-asian:normal;font-feature-settings:normal;font-variation-settings:normal;text-indent:0;text-align:start;text-decoration:none;text-decoration-line:none;text-decoration-style:solid;text-decoration-color:#000000;letter-spacing:normal;word-spacing:normal;text-transform:none;writing-mode:lr-tb;direction:ltr;text-orientation:mixed;dominant-baseline:auto;baseline-shift:baseline;text-anchor:start;white-space:normal;shape-padding:0;shape-margin:0;inline-size:0;clip-rule:nonzero;display:inline;overflow:visible;visibility:visible;isolation:auto;mix-blend-mode:normal;color-interpolation:sRGB;color-interpolation-filters:linearRGB;solid-color:#000000;solid-opacity:1;vector-effect:none;fill:#bf755a;fill-opacity:1;fill-rule:nonzero;stroke:none;stroke-width:0.0583202;stroke-linecap:butt;stroke-linejoin:miter;stroke-miterlimit:4;stroke-dasharray:none;stroke-dashoffset:0;stroke-opacity:1;color-rendering:auto;image-rendering:auto;shape-rendering:auto;text-rendering:auto;enable-background:accumulate;stop-color:#000000" />
      <path
         style="color:#000000;font-style:normal;font-variant:normal;font-weight:normal;font-stretch:normal;font-size:medium;line-height:normal;font-family:sans-serif;font-variant-ligatures:normal;font-variant-position:normal;font-variant-caps:normal;font-variant-numeric:normal;font-variant-alternates:normal;font-variant-east-asian:normal;font-feature-settings:normal;font-variation-settings:normal;text-indent:0;text-align:start;text-decoration:none;text-decoration-line:none;text-decoration-style:solid;text-decoration-color:#000000;letter-spacing:normal;word-spacing:normal;text-transform:none;writing-mode:lr-tb;direction:ltr;text-orientation:mixed;dominant-baseline:auto;baseline-shift:baseline;text-anchor:start;white-space:normal;shape-padding:0;shape-margin:0;inline-size:0;clip-rule:nonzero;display:inline;overflow:visible;visibility:visible;isolation:auto;mix-blend-mode:normal;color-interpolation:sRGB;color-interpolation-filters:linearRGB;solid-color:#000000;solid-opacity:1;vector-effect:none;fill:#bf755a;fill-opacity:1;fill-rule:nonzero;stroke:none;stroke-width:0.0583202;stroke-linecap:butt;stroke-linejoin:miter;stroke-miterlimit:4;stroke-dasharray:none;stroke-dashoffset:0;stroke-opacity:1;color-rendering:auto;image-rendering:auto;shape-rendering:auto;text-rendering:auto;enable-background:accumulate;stop-color:#000000"
         d="m 346.43209,3.23384 c -2.18654,-0.53625 -4.32158,1.15005 -5.15068,3.08523 -0.73076,1.3546 -0.55907,3.52212 1.05124,4.14695 2.30388,0.68238 4.62891,-1.2853 5.34735,-3.37536 0.57729,-1.35068 0.27971,-3.29933 -1.24791,-3.85682 z"
         id="path1044" />
    </g>
  </g>
</svg>
