<?xml version="1.0" encoding="UTF-8" standalone="no"?>
<svg
   xmlns:dc="http://purl.org/dc/elements/1.1/"
   xmlns:cc="http://creativecommons.org/ns#"
   xmlns:rdf="http://www.w3.org/1999/02/22-rdf-syntax-ns#"
   xmlns:svg="http://www.w3.org/2000/svg"
   xmlns="http://www.w3.org/2000/svg"
   xmlns:sodipodi="http://sodipodi.sourceforge.net/DTD/sodipodi-0.dtd"
   xmlns:inkscape="http://www.inkscape.org/namespaces/inkscape"
   inkscape:version="1.0 (4035a4fb49, 2020-05-01)"
   id="svg8"
   version="1.1"
   viewBox="0 0 396.43855 42.89273"
   height="162.11426"
   width="1498.3505"
   sodipodi:docname="canine-plus-nine-logo.svg">
  <defs
     id="defs2" />
  <sodipodi:namedview
     units="px"
     inkscape:pagecheckerboard="true"
     fit-margin-bottom="0"
     fit-margin-right="0"
     fit-margin-left="0"
     fit-margin-top="0"
     inkscape:showpageshadow="false"
     showgrid="false"
     inkscape:document-rotation="0"
     inkscape:current-layer="svg8"
     inkscape:document-units="px"
     inkscape:cy="3.9142652"
     inkscape:cx="740.60381"
     inkscape:zoom="0.35"
     inkscape:pageshadow="2"
     inkscape:pageopacity="0"
     borderopacity="1.0"
     bordercolor="#666666"
     pagecolor="#262626"
     id="base"
     inkscape:window-width="1366"
     inkscape:window-height="745"
     inkscape:window-x="-8"
     inkscape:window-y="-8"
     inkscape:window-maximized="1" />
  <metadata
     id="metadata5">
    <rdf:RDF>
      <cc:Work
         rdf:about="">
        <dc:format>image/svg+xml</dc:format>
        <dc:type
           rdf:resource="http://purl.org/dc/dcmitype/StillImage" />
        <dc:title />
      </cc:Work>
    </rdf:RDF>
  </metadata>
  <g
     id="g1200"
     transform="translate(143.85102,-528.50331)"
     inkscape:export-filename="C:\Users\arshad\Desktop\canine-plus-nine-logo.png"
     inkscape:export-xdpi="123.01528"
     inkscape:export-ydpi="123.01528">
    <g
       id="g1139">
      <path
         style="color:#000000;font-style:normal;font-variant:normal;font-weight:normal;font-stretch:normal;font-size:medium;line-height:normal;font-family:sans-serif;font-variant-ligatures:normal;font-variant-position:normal;font-variant-caps:normal;font-variant-numeric:normal;font-variant-alternates:normal;font-variant-east-asian:normal;font-feature-settings:normal;font-variation-settings:normal;text-indent:0;text-align:start;text-decoration:none;text-decoration-line:none;text-decoration-style:solid;text-decoration-color:#000000;letter-spacing:normal;word-spacing:normal;text-transform:none;writing-mode:lr-tb;direction:ltr;text-orientation:mixed;dominant-baseline:auto;baseline-shift:baseline;text-anchor:start;white-space:normal;shape-padding:0;shape-margin:0;inline-size:0;clip-rule:nonzero;display:inline;overflow:visible;visibility:visible;isolation:auto;mix-blend-mode:normal;color-interpolation:sRGB;color-interpolation-filters:linearRGB;solid-color:#000000;solid-opacity:1;vector-effect:none;fill:#bf755a;fill-opacity:1;fill-rule:nonzero;stroke:none;stroke-width:1.77827;stroke-linecap:butt;stroke-linejoin:miter;stroke-miterlimit:4;stroke-dasharray:none;stroke-dashoffset:0;stroke-opacity:1;color-rendering:auto;image-rendering:auto;shape-rendering:auto;text-rendering:auto;enable-background:accumulate;stop-color:#000000"
         d="m -125.92478,550.2889 c -2.75344,-0.84572 -5.98044,-0.31506 -8.4057,1.2118 -2.67441,1.82678 -5.1237,4.15785 -6.68712,7.02432 -1.43064,1.96879 -0.51676,5.02735 1.83107,5.77109 2.80596,0.95492 5.84016,-0.23545 8.69923,0.49161 2.50044,0.37529 4.25394,2.27924 6.149,3.75682 1.58571,1.34769 4.20415,1.83012 5.74639,0.15205 1.35479,-1.77769 0.93632,-4.25007 0.59263,-6.30777 -0.93064,-3.45525 -1.94583,-7.09827 -4.38019,-9.82935 -0.96946,-1.11508 -2.20062,-1.85733 -3.54531,-2.2705 z"
         id="path1008" />
      <path
         style="color:#000000;font-style:normal;font-variant:normal;font-weight:normal;font-stretch:normal;font-size:medium;line-height:normal;font-family:sans-serif;font-variant-ligatures:normal;font-variant-position:normal;font-variant-caps:normal;font-variant-numeric:normal;font-variant-alternates:normal;font-variant-east-asian:normal;font-feature-settings:normal;font-variation-settings:normal;text-indent:0;text-align:start;text-decoration:none;text-decoration-line:none;text-decoration-style:solid;text-decoration-color:#000000;letter-spacing:normal;word-spacing:normal;text-transform:none;writing-mode:lr-tb;direction:ltr;text-orientation:mixed;dominant-baseline:auto;baseline-shift:baseline;text-anchor:start;white-space:normal;shape-padding:0;shape-margin:0;inline-size:0;clip-rule:nonzero;display:inline;overflow:visible;visibility:visible;isolation:auto;mix-blend-mode:normal;color-interpolation:sRGB;color-interpolation-filters:linearRGB;solid-color:#000000;solid-opacity:1;vector-effect:none;fill:#bf755a;fill-opacity:1;fill-rule:nonzero;stroke:none;stroke-width:0.0896231;stroke-linecap:butt;stroke-linejoin:miter;stroke-miterlimit:4;stroke-dasharray:none;stroke-dashoffset:0;stroke-opacity:1;color-rendering:auto;image-rendering:auto;shape-rendering:auto;text-rendering:auto;enable-background:accumulate;stop-color:#000000"
         d="m -138.59551,538.86592 c -1.39971,-0.44698 -3.04055,-0.0334 -3.94095,1.25142 -2.40536,3.43767 -1.44474,9.03232 2.34922,11.08612 1.59769,0.81107 3.48115,-0.0256 4.38211,-1.45491 1.91889,-3.05972 1.29675,-7.49495 -1.31623,-9.96226 -0.41478,-0.43718 -0.92659,-0.74496 -1.47436,-0.91972 z"
         id="path1014" />
      <path
         style="color:#000000;font-style:normal;font-variant:normal;font-weight:normal;font-stretch:normal;font-size:medium;line-height:normal;font-family:sans-serif;font-variant-ligatures:normal;font-variant-position:normal;font-variant-caps:normal;font-variant-numeric:normal;font-variant-alternates:normal;font-variant-east-asian:normal;font-feature-settings:normal;font-variation-settings:normal;text-indent:0;text-align:start;text-decoration:none;text-decoration-line:none;text-decoration-style:solid;text-decoration-color:#000000;letter-spacing:normal;word-spacing:normal;text-transform:none;writing-mode:lr-tb;direction:ltr;text-orientation:mixed;dominant-baseline:auto;baseline-shift:baseline;text-anchor:start;white-space:normal;shape-padding:0;shape-margin:0;inline-size:0;clip-rule:nonzero;display:inline;overflow:visible;visibility:visible;isolation:auto;mix-blend-mode:normal;color-interpolation:sRGB;color-interpolation-filters:linearRGB;solid-color:#000000;solid-opacity:1;vector-effect:none;fill:#bf755a;fill-opacity:1;fill-rule:nonzero;stroke:none;stroke-width:0.0896231;stroke-linecap:butt;stroke-linejoin:miter;stroke-miterlimit:4;stroke-dasharray:none;stroke-dashoffset:0;stroke-opacity:1;color-rendering:auto;image-rendering:auto;shape-rendering:auto;text-rendering:auto;enable-background:accumulate;stop-color:#000000"
         d="m -109.49368,547.07611 c -3.36014,-0.82408 -6.64114,1.76732 -7.91525,4.7412 -1.12299,2.08167 -0.85916,5.41258 1.61547,6.37279 3.54047,1.04864 7.11345,-1.97517 8.2175,-5.18706 0.88714,-2.07564 0.42985,-5.07022 -1.91772,-5.92693 z"
         id="path1020" />
      <path
         style="color:#000000;font-style:normal;font-variant:normal;font-weight:normal;font-stretch:normal;font-size:medium;line-height:normal;font-family:sans-serif;font-variant-ligatures:normal;font-variant-position:normal;font-variant-caps:normal;font-variant-numeric:normal;font-variant-alternates:normal;font-variant-east-asian:normal;font-feature-settings:normal;font-variation-settings:normal;text-indent:0;text-align:start;text-decoration:none;text-decoration-line:none;text-decoration-style:solid;text-decoration-color:#000000;letter-spacing:normal;word-spacing:normal;text-transform:none;writing-mode:lr-tb;direction:ltr;text-orientation:mixed;dominant-baseline:auto;baseline-shift:baseline;text-anchor:start;white-space:normal;shape-padding:0;shape-margin:0;inline-size:0;clip-rule:nonzero;display:inline;overflow:visible;visibility:visible;isolation:auto;mix-blend-mode:normal;color-interpolation:sRGB;color-interpolation-filters:linearRGB;solid-color:#000000;solid-opacity:1;vector-effect:none;fill:#bf755a;fill-opacity:1;fill-rule:nonzero;stroke:none;stroke-width:0.0896231;stroke-linecap:butt;stroke-linejoin:miter;stroke-miterlimit:4;stroke-dasharray:none;stroke-dashoffset:0;stroke-opacity:1;color-rendering:auto;image-rendering:auto;shape-rendering:auto;text-rendering:auto;enable-background:accumulate;stop-color:#000000"
         d="m -127.6386,530.24643 c -1.92151,-0.54364 -4.00593,0.93051 -4.87101,2.65514 -1.75234,3.40485 -1.49955,8.38788 1.90035,10.68913 0.32785,0.18527 0.68899,0.30575 1.06106,0.3608 2.66728,0.3626 4.6223,-2.14846 5.22704,-4.47703 0.8612,-3.05198 0.3724,-7.0407 -2.50888,-8.86594 -0.26386,-0.16521 -0.53409,-0.28414 -0.80859,-0.36182 z"
         id="path1026" />
      <path
         style="color:#000000;font-style:normal;font-variant:normal;font-weight:normal;font-stretch:normal;font-size:medium;line-height:normal;font-family:sans-serif;font-variant-ligatures:normal;font-variant-position:normal;font-variant-caps:normal;font-variant-numeric:normal;font-variant-alternates:normal;font-variant-east-asian:normal;font-feature-settings:normal;font-variation-settings:normal;text-indent:0;text-align:start;text-decoration:none;text-decoration-line:none;text-decoration-style:solid;text-decoration-color:#000000;letter-spacing:normal;word-spacing:normal;text-transform:none;writing-mode:lr-tb;direction:ltr;text-orientation:mixed;dominant-baseline:auto;baseline-shift:baseline;text-anchor:start;white-space:normal;shape-padding:0;shape-margin:0;inline-size:0;clip-rule:nonzero;display:inline;overflow:visible;visibility:visible;isolation:auto;mix-blend-mode:normal;color-interpolation:sRGB;color-interpolation-filters:linearRGB;solid-color:#000000;solid-opacity:1;vector-effect:none;fill:#bf755a;fill-opacity:1;fill-rule:nonzero;stroke:none;stroke-width:0.0896231;stroke-linecap:butt;stroke-linejoin:miter;stroke-miterlimit:4;stroke-dasharray:none;stroke-dashoffset:0;stroke-opacity:1;color-rendering:auto;image-rendering:auto;shape-rendering:auto;text-rendering:auto;enable-background:accumulate;stop-color:#000000"
         d="m -114.59257,534.13339 c -0.0758,-0.0224 -0.15446,-0.0427 -0.23344,-0.0605 -3.23093,-0.42023 -5.92139,2.30074 -7.05123,5.08498 -1.16054,2.48448 -1.04965,6.17398 1.61967,7.63771 0.38897,0.20657 0.82951,0.30371 1.2674,0.31919 3.78734,-0.0882 6.58103,-3.67636 7.12727,-7.19598 0.52891,-2.21853 -0.37793,-5.08998 -2.72973,-5.78542 z"
         id="path1032" />
    </g>
    <g
       transform="translate(0,-2.1251849)"
       id="g1174">
      <g
         id="g1155">
        <path
           d="m -70.480974,565.09979 q 0,0.65989 -0.754158,2.26247 -2.828092,6.15896 -10.809595,6.15896 -7.510154,0 -11.595176,-5.53049 -3.582249,-4.87061 -3.582249,-12.66357 0,-8.5157 4.116444,-15.90016 4.870603,-8.79851 12.726413,-8.79851 2.765245,0 5.561914,2.23105 3.016631,2.35675 3.016631,5.05914 0,2.07394 -2.011088,2.07394 -0.942697,0 -1.822548,-1.38262 -1.445469,-2.2939 -1.696855,-2.57671 -1.225506,-1.38262 -3.173747,-1.38262 -5.938993,0 -9.646935,7.88723 -3.048054,6.47319 -3.048054,13.16634 0,5.90757 2.576705,9.67836 2.985208,4.3364 8.609968,4.3364 6.504611,0 8.327159,-5.46764 0.911274,-0.31423 1.885395,-0.31423 1.319776,0 1.319776,1.16266 z"
           style="font-style:normal;font-variant:normal;font-weight:normal;font-stretch:normal;font-size:64.3548px;line-height:1.25;font-family:'SF Cartoonist Hand';-inkscape-font-specification:'SF Cartoonist Hand';letter-spacing:1.05833px;fill:#5e92d4;fill-opacity:1;stroke:none;stroke-width:1.60887"
           id="path978" />
        <path
           d="m -43.938396,571.41586 q -1.445469,1.66543 -2.482436,1.66543 -0.911274,0 -1.131237,-2.76524 -4.053598,3.20517 -8.672814,3.20517 -4.933449,0 -7.824387,-3.80222 -2.576706,-3.42513 -2.576706,-8.54712 0,-5.2791 4.022175,-9.3327 4.053598,-4.0536 9.364126,-4.0536 2.796668,0 5.310527,1.22551 0.377079,-1.53974 1.885395,-1.53974 2.105357,0 2.105357,4.49352 0,2.35675 -0.18854,7.00739 -0.188539,4.61921 -0.188539,6.97596 0,2.92236 0.377079,5.46764 z m -3.865059,-17.69129 q -0.754158,-0.15711 -2.702398,-1.06839 -1.476893,-0.69131 -2.828092,-0.69131 -3.707943,0 -6.410341,2.92236 -2.670976,2.92237 -2.670976,6.63031 0,3.04805 1.476893,5.24768 1.634008,2.51386 4.556369,2.51386 4.399254,0 8.358583,-4.08502 0,-1.97967 0,-5.71903 0.219962,-4.02218 0.219962,-5.75046 z"
           style="font-style:normal;font-variant:normal;font-weight:normal;font-stretch:normal;font-size:64.3548px;line-height:1.25;font-family:'SF Cartoonist Hand';-inkscape-font-specification:'SF Cartoonist Hand';letter-spacing:1.05833px;fill:#5e92d4;fill-opacity:1;stroke:none;stroke-width:1.60887"
           id="path980" />
        <path
           d="m -19.186941,560.22919 q 0,1.85397 -0.314233,5.62476 -0.282809,3.73936 -0.282809,5.62476 0,0.817 -0.534195,1.41404 -0.534195,0.56562 -1.319776,0.56562 -2.042511,0 -2.042511,-3.86506 0,-1.60258 0.219963,-4.71348 0.251386,-3.14233 0.251386,-4.77634 0,-8.67281 -5.467644,-8.67281 -4.179291,0 -6.441764,4.11644 v 14.329 q 0,3.6451 -1.979665,3.6451 -1.822548,0 -1.822548,-2.51386 0,-3.48798 0,-10.6839 0.125693,-3.80222 0.125693,-11.37522 1.539739,-0.91127 2.545283,-0.91127 1.099813,0 1.036967,2.10536 2.890938,-2.51386 6.69315,-2.51386 9.332703,0 9.332703,12.60072 z"
           style="font-style:normal;font-variant:normal;font-weight:normal;font-stretch:normal;font-size:64.3548px;line-height:1.25;font-family:'SF Cartoonist Hand';-inkscape-font-specification:'SF Cartoonist Hand';letter-spacing:1.05833px;fill:#5e92d4;fill-opacity:1;stroke:none;stroke-width:1.60887"
           id="path982" />
        <path
           style="font-style:normal;font-variant:normal;font-weight:normal;font-stretch:normal;font-size:64.3548px;line-height:1.25;font-family:'SF Cartoonist Hand';-inkscape-font-specification:'SF Cartoonist Hand';letter-spacing:1.05833px;fill:#5e92d4;fill-opacity:1;stroke:none;stroke-width:1.60887"
           d="m -10.649882,550.07948 q 0.377079,2.13678 -0.157116,5.84472 -0.157117,4.30499 -0.219963,5.8133 -0.06285,2.82809 -0.06285,5.62476 -0.157116,3.26802 -0.597041,5.62476 -1.16266,0.5342 -2.011088,0.5342 -1.256929,0 -1.256929,-1.72828 0,-1.91682 0,-5.31053 0.282809,-3.80221 0.282809,-11.24952 0,-3.55083 0.439925,-5.21626 0.471349,-1.69685 1.916818,-1.69685 1.665432,0 1.665432,1.7597 z"
           id="path984" />
        <path
           d="m 13.598802,560.22919 q 0,1.85397 -0.314232,5.62476 -0.282809,3.73936 -0.282809,5.62476 0,0.817 -0.534195,1.41404 -0.534195,0.56562 -1.319776,0.56562 -2.042511,0 -2.042511,-3.86506 0,-1.60258 0.219963,-4.71348 0.251386,-3.14233 0.251386,-4.77634 0,-8.67281 -5.467644,-8.67281 -4.179291,0 -6.441765,4.11644 v 14.329 q 0,3.6451 -1.979664,3.6451 -1.822548,0 -1.822548,-2.51386 0,-3.48798 0,-10.6839 0.125693,-3.80222 0.125693,-11.37522 1.539739,-0.91127 2.545283,-0.91127 1.099813,0 1.036967,2.10536 2.890938,-2.51386 6.69315,-2.51386 9.332702,0 9.332702,12.60072 z"
           style="font-style:normal;font-variant:normal;font-weight:normal;font-stretch:normal;font-size:64.3548px;line-height:1.25;font-family:'SF Cartoonist Hand';-inkscape-font-specification:'SF Cartoonist Hand';letter-spacing:1.05833px;fill:#5e92d4;fill-opacity:1;stroke:none;stroke-width:1.60887"
           id="path986" />
        <path
           d="m 40.64415,567.89646 q 0,0.59704 -0.597041,1.31977 -1.382623,1.82255 -4.493524,3.1109 -2.922361,1.19409 -5.43622,1.19409 -4.996296,0 -8.672815,-3.70795 -3.645096,-3.73936 -3.645096,-8.73566 0,-4.93345 3.425134,-9.01847 3.645095,-4.3364 8.484275,-4.3364 3.362286,0 5.938992,2.85951 2.199627,2.38817 3.205171,6.00184 0.345655,1.13124 0.345655,1.66543 0,1.31978 -1.822548,1.85397 -2.639552,0.81701 -10.306823,0.81701 -3.016631,0 -5.153411,-0.15712 0,3.48798 2.388166,6.03326 2.388166,2.54529 5.8133,2.54529 2.04251,0 4.996295,-1.66544 2.953785,-1.66543 3.425133,-1.66543 0.817005,0 1.445469,0.5342 0.659888,0.53419 0.659888,1.3512 z m -5.813299,-11.31237 q -1.696855,-4.77633 -5.310528,-4.77633 -1.979664,0 -4.022175,1.88539 -1.634008,1.53974 -2.670975,3.67652 3.173747,-0.0314 12.003678,-0.78558 z"
           style="font-style:normal;font-variant:normal;font-weight:normal;font-stretch:normal;font-size:64.3548px;line-height:1.25;font-family:'SF Cartoonist Hand';-inkscape-font-specification:'SF Cartoonist Hand';letter-spacing:1.05833px;fill:#5e92d4;fill-opacity:1;stroke:none;stroke-width:1.60887"
           id="path988" />
        <path
           d="m 89.911319,546.65435 q 0,6.59888 -6.31607,9.80405 -4.93345,2.5767 -12.19222,2.5767 -3.04805,0 -5.656176,-0.4085 v 12.00368 q -0.06285,2.89094 -1.885394,2.89094 -1.728278,0 -1.728278,-1.66544 0,-2.5767 0,-7.07022 0.157116,-5.05915 0.157116,-7.03881 -2.23105,-0.47135 -2.23105,-2.23105 0,-0.91127 0.659888,-1.50832 0.659888,-0.59704 1.571162,-0.37708 0.06285,-6.37891 0.06285,-19.10533 -1.131236,0.1257 -2.262473,0.21997 -1.16266,-1.3512 -1.16266,-2.41959 0,-1.69686 8.201455,-1.69686 8.79851,0 15.11458,3.51941 7.66727,4.39925 7.66727,12.50645 z m -4.11644,0.21996 q 0,-6.88169 -6.91311,-10.08686 -5.15342,-2.41959 -12.946376,-2.41959 -0.18854,8.5157 -0.18854,20.11087 2.356736,0.37708 5.121986,0.37708 5.65618,0 9.39555,-1.38262 5.53049,-1.97967 5.53049,-6.59888 z"
           style="font-style:normal;font-variant:normal;font-weight:normal;font-stretch:normal;font-size:64.3548px;line-height:1.25;font-family:'SF Cartoonist Hand';-inkscape-font-specification:'SF Cartoonist Hand';letter-spacing:1.05833px;fill:#5e92d4;fill-opacity:1;stroke:none;stroke-width:1.60887"
           id="path990" />
        <path
           d="m 97.537109,563.87428 q 0,4.80776 -0.43993,8.67282 -1.3512,0.97412 -2.41959,0.97412 -1.13123,0 -1.13123,-2.95379 0,-0.62846 0,-1.91682 0.0628,-1.3512 0.0628,-1.97966 0,-5.59334 -0.28281,-16.78001 -0.25138,-11.2181 -0.25138,-16.81143 0,-2.45102 1.82255,-2.45102 2.04251,0 2.04251,4.27356 0,0.50278 -0.0628,1.50832 0,0.97412 0,1.44547 0,4.33641 0.31423,13.00922 0.34566,8.67281 0.34566,13.00922 z"
           style="font-style:normal;font-variant:normal;font-weight:normal;font-stretch:normal;font-size:64.3548px;line-height:1.25;font-family:'SF Cartoonist Hand';-inkscape-font-specification:'SF Cartoonist Hand';letter-spacing:1.05833px;fill:#5e92d4;fill-opacity:1;stroke:none;stroke-width:1.60887"
           id="path992" />
        <path
           d="m 123.19983,571.76151 q 0,1.75971 -1.7597,1.75971 -1.44547,0 -1.82255,-1.50832 -0.15712,-0.59704 -0.15712,-2.60813 -2.95378,4.11645 -7.4473,4.11645 -10.08686,0 -10.08686,-18.72826 0,-4.43067 0.56561,-5.81329 0.59705,-1.41405 1.8854,-1.41405 2.1682,0 2.1682,1.97966 0,1.22551 -0.18854,3.77079 -0.18854,2.51386 -0.18854,3.73937 0,4.4621 1.00555,7.66727 1.50831,4.83918 4.8706,4.83918 2.95378,0 5.12199,-3.01663 1.85397,-2.60813 2.13678,-5.78188 0.0943,-1.41405 0.0943,-6.00184 -0.0314,-3.70794 0.43992,-5.97041 1.16266,-0.69132 2.26248,-0.69132 1.06839,0 1.06839,2.67098 0,0.817 -0.0628,2.48244 0,1.60258 0,11.40663 0,1.19409 0.0314,3.55083 0.0628,2.35674 0.0628,3.55082 z"
           style="font-style:normal;font-variant:normal;font-weight:normal;font-stretch:normal;font-size:64.3548px;line-height:1.25;font-family:'SF Cartoonist Hand';-inkscape-font-specification:'SF Cartoonist Hand';letter-spacing:1.05833px;fill:#5e92d4;fill-opacity:1;stroke:none;stroke-width:1.60887"
           id="path994" />
        <path
           d="m 146.88289,567.1423 q 0,2.98521 -2.92236,4.83918 -2.51386,1.53974 -5.71903,1.53974 -6.66173,0 -10.6839,-5.09057 0.53419,-2.67097 1.60258,-2.67097 -0.34565,0 2.92237,2.07393 3.29944,2.04251 6.00183,2.04251 4.02218,0 4.93345,-2.48244 -0.12569,-2.67097 -3.86506,-4.96487 -3.42513,-1.88539 -6.91311,-3.77079 -3.70794,-2.29389 -3.70794,-4.96487 0,-2.7024 2.89094,-4.4621 2.51386,-1.50831 5.37337,-1.50831 1.8854,0 4.11645,0.817 2.85951,1.00554 2.85951,2.51386 0,0.817 -0.59704,1.44547 -0.59704,0.62846 -1.38262,0.62846 -0.56562,0 -2.16821,-0.65988 -1.60258,-0.65989 -2.5767,-0.65989 -3.67652,0 -4.55637,1.91681 1.28835,1.8854 5.2791,3.80222 4.74491,2.32532 6.15896,3.45655 2.95378,2.38817 2.95378,6.15896 z"
           style="font-style:normal;font-variant:normal;font-weight:normal;font-stretch:normal;font-size:64.3548px;line-height:1.25;font-family:'SF Cartoonist Hand';-inkscape-font-specification:'SF Cartoonist Hand';letter-spacing:1.05833px;fill:#5e92d4;fill-opacity:1;stroke:none;stroke-width:1.60887"
           id="path996" />
        <path
           d="m 192.47365,571.76151 q 0,1.75971 -2.73382,1.75971 -0.75416,0 -1.47689,-0.84843 -0.91128,-1.13124 -1.82255,-3.1109 -0.72274,-1.66543 -1.47689,-3.33087 -7.73012,-16.02585 -15.99443,-28.81511 0.0628,3.45656 0.0628,29.25504 0,0.56562 0.0628,1.69685 0.0943,1.13124 0.0943,1.72828 0,3.42514 -1.97967,3.42514 -1.79112,0 -1.79112,-24.95006 0.0628,-2.29389 -0.0943,-6.81884 -0.15712,-4.52495 -0.15712,-6.85027 0,-3.42513 0.75416,-3.89648 0.21996,-0.18854 1.50832,-0.18854 0.84842,0 1.2255,0.37708 2.89094,2.73382 6.756,9.3327 1.28835,2.16821 5.68761,10.30683 3.80221,7.07023 7.76154,14.92604 v -17.72271 q 0,-2.67098 -0.1257,-8.07577 -0.12569,-5.43623 -0.12569,-8.1072 0,-0.47135 0.9427,-0.91128 0.75416,-0.31423 1.3512,-0.31423 0.65989,0 0.91127,0.91128 0.65989,2.19962 0.65989,9.7412 z"
           style="font-style:normal;font-variant:normal;font-weight:normal;font-stretch:normal;font-size:64.3548px;line-height:1.25;font-family:'SF Cartoonist Hand';-inkscape-font-specification:'SF Cartoonist Hand';letter-spacing:1.05833px;fill:#5e92d4;fill-opacity:1;stroke:none;stroke-width:1.60887"
           id="path998" />
        <path
           style="font-style:normal;font-variant:normal;font-weight:normal;font-stretch:normal;font-size:64.3548px;line-height:1.25;font-family:'SF Cartoonist Hand';-inkscape-font-specification:'SF Cartoonist Hand';letter-spacing:1.05833px;fill:#5e92d4;fill-opacity:1;stroke:none;stroke-width:1.60887"
           d="m 201.29352,550.07948 q 0.37708,2.13678 -0.15712,5.84472 -0.15712,4.30499 -0.21996,5.8133 -0.0628,2.82809 -0.0628,5.62476 -0.15711,3.26802 -0.59704,5.62476 -1.16266,0.5342 -2.01109,0.5342 -1.25693,0 -1.25693,-1.72828 0,-1.91682 0,-5.31053 0.28281,-3.80221 0.28281,-11.24952 0,-3.55083 0.43993,-5.21626 0.47135,-1.69685 1.91682,-1.69685 1.66543,0 1.66543,1.7597 z"
           id="path1000" />
        <path
           d="m 225.54221,560.22919 q 0,1.85397 -0.31423,5.62476 -0.28281,3.73936 -0.28281,5.62476 0,0.817 -0.5342,1.41404 -0.53419,0.56562 -1.31977,0.56562 -2.04251,0 -2.04251,-3.86506 0,-1.60258 0.21996,-4.71348 0.25138,-3.14233 0.25138,-4.77634 0,-8.67281 -5.46764,-8.67281 -4.17929,0 -6.44176,4.11644 v 14.329 q 0,3.6451 -1.97967,3.6451 -1.82255,0 -1.82255,-2.51386 0,-3.48798 0,-10.6839 0.1257,-3.80222 0.1257,-11.37522 1.53974,-0.91127 2.54528,-0.91127 1.09981,0 1.03697,2.10536 2.89093,-2.51386 6.69315,-2.51386 9.3327,0 9.3327,12.60072 z"
           style="font-style:normal;font-variant:normal;font-weight:normal;font-stretch:normal;font-size:64.3548px;line-height:1.25;font-family:'SF Cartoonist Hand';-inkscape-font-specification:'SF Cartoonist Hand';letter-spacing:1.05833px;fill:#5e92d4;fill-opacity:1;stroke:none;stroke-width:1.60887"
           id="path1002" />
        <path
           d="m 252.58754,567.89646 q 0,0.59704 -0.59704,1.31977 -1.38262,1.82255 -4.49352,3.1109 -2.92236,1.19409 -5.43622,1.19409 -4.9963,0 -8.67282,-3.70795 -3.64509,-3.73936 -3.64509,-8.73566 0,-4.93345 3.42513,-9.01847 3.64509,-4.3364 8.48427,-4.3364 3.36229,0 5.939,2.85951 2.19962,2.38817 3.20517,6.00184 0.34565,1.13124 0.34565,1.66543 0,1.31978 -1.82255,1.85397 -2.63955,0.81701 -10.30682,0.81701 -3.01663,0 -5.15341,-0.15712 0,3.48798 2.38817,6.03326 2.38816,2.54529 5.8133,2.54529 2.04251,0 4.99629,-1.66544 2.95379,-1.66543 3.42513,-1.66543 0.81701,0 1.44547,0.5342 0.65989,0.53419 0.65989,1.3512 z m -5.8133,-11.31237 q -1.69685,-4.77633 -5.31053,-4.77633 -1.97966,0 -4.02217,1.88539 -1.63401,1.53974 -2.67098,3.67652 3.17375,-0.0314 12.00368,-0.78558 z"
           style="font-style:normal;font-variant:normal;font-weight:normal;font-stretch:normal;font-size:64.3548px;line-height:1.25;font-family:'SF Cartoonist Hand';-inkscape-font-specification:'SF Cartoonist Hand';letter-spacing:1.05833px;fill:#5e92d4;fill-opacity:1;stroke:none;stroke-width:1.60887"
           id="path1004" />
      </g>
      <path
         id="path1038"
         d="m -9.3623845,533.86233 c -2.1865365,-0.53625 -4.3215745,1.15005 -5.1506735,3.08523 -0.730764,1.3546 -0.559077,3.52212 1.051232,4.14695 2.303882,0.68238 4.6289154,-1.2853 5.3473567,-3.37536 0.5772865,-1.35068 0.2797127,-3.29933 -1.2479152,-3.85682 z"
         style="color:#000000;font-style:normal;font-variant:normal;font-weight:normal;font-stretch:normal;font-size:medium;line-height:normal;font-family:sans-serif;font-variant-ligatures:normal;font-variant-position:normal;font-variant-caps:normal;font-variant-numeric:normal;font-variant-alternates:normal;font-variant-east-asian:normal;font-feature-settings:normal;font-variation-settings:normal;text-indent:0;text-align:start;text-decoration:none;text-decoration-line:none;text-decoration-style:solid;text-decoration-color:#000000;letter-spacing:normal;word-spacing:normal;text-transform:none;writing-mode:lr-tb;direction:ltr;text-orientation:mixed;dominant-baseline:auto;baseline-shift:baseline;text-anchor:start;white-space:normal;shape-padding:0;shape-margin:0;inline-size:0;clip-rule:nonzero;display:inline;overflow:visible;visibility:visible;isolation:auto;mix-blend-mode:normal;color-interpolation:sRGB;color-interpolation-filters:linearRGB;solid-color:#000000;solid-opacity:1;vector-effect:none;fill:#bf755a;fill-opacity:1;fill-rule:nonzero;stroke:none;stroke-width:0.0583202;stroke-linecap:butt;stroke-linejoin:miter;stroke-miterlimit:4;stroke-dasharray:none;stroke-dashoffset:0;stroke-opacity:1;color-rendering:auto;image-rendering:auto;shape-rendering:auto;text-rendering:auto;enable-background:accumulate;stop-color:#000000" />
      <path
         style="color:#000000;font-style:normal;font-variant:normal;font-weight:normal;font-stretch:normal;font-size:medium;line-height:normal;font-family:sans-serif;font-variant-ligatures:normal;font-variant-position:normal;font-variant-caps:normal;font-variant-numeric:normal;font-variant-alternates:normal;font-variant-east-asian:normal;font-feature-settings:normal;font-variation-settings:normal;text-indent:0;text-align:start;text-decoration:none;text-decoration-line:none;text-decoration-style:solid;text-decoration-color:#000000;letter-spacing:normal;word-spacing:normal;text-transform:none;writing-mode:lr-tb;direction:ltr;text-orientation:mixed;dominant-baseline:auto;baseline-shift:baseline;text-anchor:start;white-space:normal;shape-padding:0;shape-margin:0;inline-size:0;clip-rule:nonzero;display:inline;overflow:visible;visibility:visible;isolation:auto;mix-blend-mode:normal;color-interpolation:sRGB;color-interpolation-filters:linearRGB;solid-color:#000000;solid-opacity:1;vector-effect:none;fill:#bf755a;fill-opacity:1;fill-rule:nonzero;stroke:none;stroke-width:0.0583202;stroke-linecap:butt;stroke-linejoin:miter;stroke-miterlimit:4;stroke-dasharray:none;stroke-dashoffset:0;stroke-opacity:1;color-rendering:auto;image-rendering:auto;shape-rendering:auto;text-rendering:auto;enable-background:accumulate;stop-color:#000000"
         d="m 202.58107,533.86233 c -2.18654,-0.53625 -4.32158,1.15005 -5.15068,3.08523 -0.73076,1.3546 -0.55907,3.52212 1.05124,4.14695 2.30388,0.68238 4.62891,-1.2853 5.34735,-3.37536 0.57729,-1.35068 0.27971,-3.29933 -1.24791,-3.85682 z"
         id="path1044" />
    </g>
  </g>
</svg>
