<?xml version="1.0" encoding="UTF-8" standalone="no"?>
<svg
   xmlns:dc="http://purl.org/dc/elements/1.1/"
   xmlns:cc="http://creativecommons.org/ns#"
   xmlns:rdf="http://www.w3.org/1999/02/22-rdf-syntax-ns#"
   xmlns:svg="http://www.w3.org/2000/svg"
   xmlns="http://www.w3.org/2000/svg"
   xmlns:sodipodi="http://sodipodi.sourceforge.net/DTD/sodipodi-0.dtd"
   xmlns:inkscape="http://www.inkscape.org/namespaces/inkscape"
   inkscape:version="1.0 (4035a4fb49, 2020-05-01)"
   id="svg8"
   version="1.1"
   viewBox="0 0 285.80684 55.08442"
   height="208.19308"
   width="1080.2148"
   sodipodi:docname="cat-equation.svg">
  <defs
     id="defs2" />
  <sodipodi:namedview
     units="px"
     inkscape:pagecheckerboard="true"
     fit-margin-bottom="0"
     fit-margin-right="0"
     fit-margin-left="0"
     fit-margin-top="0"
     inkscape:showpageshadow="false"
     showgrid="false"
     inkscape:document-rotation="0"
     inkscape:current-layer="svg8"
     inkscape:document-units="px"
     inkscape:cy="-344.81176"
     inkscape:cx="391.03775"
     inkscape:zoom="0.125"
     inkscape:pageshadow="2"
     inkscape:pageopacity="0"
     borderopacity="1.0"
     bordercolor="#666666"
     pagecolor="#262626"
     id="base"
     inkscape:window-width="1366"
     inkscape:window-height="745"
     inkscape:window-x="-8"
     inkscape:window-y="-8"
     inkscape:window-maximized="1" />
  <metadata
     id="metadata5">
    <rdf:RDF>
      <cc:Work
         rdf:about="">
        <dc:format>image/svg+xml</dc:format>
        <dc:type
           rdf:resource="http://purl.org/dc/dcmitype/StillImage" />
        <dc:title />
      </cc:Work>
    </rdf:RDF>
  </metadata>
  <g
     inkscape:export-ydpi="170.63274"
     inkscape:export-xdpi="170.63274"
     inkscape:export-filename="C:\Users\arshad\Desktop\cat-equation.png"
     id="g2001"
     transform="matrix(0.21116866,0,0,0.21116866,39.95878,-175.18649)"
     style="stroke-width:4.73556">
    <path
       id="rect1691"
       style="opacity:0.997;fill:#5e92d4;fill-opacity:0.101961;stroke-width:8.42104;stroke-linecap:square;stop-color:#000000"
       d="M -173.35185,829.60461 H 1148.351 c 8.7948,0 15.875,7.08025 15.875,15.875 v 229.10509 c 0,8.7947 -7.0802,15.875 -15.875,15.875 H -173.35185 c -8.79475,0 -15.875,-7.0803 -15.875,-15.875 V 845.47961 c 0,-8.79475 7.08025,-15.875 15.875,-15.875 z" />
    <g
       id="g1953"
       transform="translate(14.375785,335.74556)"
       style="fill:#0b609a;fill-opacity:1;stroke-width:4.73556">
      <path
         d="m -98.926269,599.49123 c 0,-4.02601 -3.838751,-6.17945 -7.677491,-6.17945 -9.17555,0 -11.51625,12.17164 -12.17164,15.35499 l -1.96619,10.29908 h -6.17945 c -1.49805,0 -2.52796,0 -2.52796,1.87256 0,1.02991 0.93628,1.02991 2.3407,1.02991 h 5.80494 l -6.83484,34.92324 c -1.12354,5.80494 -2.05982,9.64369 -2.62159,11.60987 -0.74902,3.18336 -1.96619,8.05201 -5.33679,8.05201 -0.93628,0 -2.71522,-0.28088 -3.74512,-1.6853 2.80884,-0.46814 4.11963,-2.71521 4.11963,-4.58777 0,-2.05982 -1.68531,-2.9961 -3.18335,-2.9961 -2.3407,0 -4.6814,1.87256 -4.6814,5.14954 0,4.21326 4.026,6.17945 7.49024,6.17945 9.73731,0 13.57606,-19.66188 14.23145,-23.03249 l 6.55396,-33.61245 h 7.6775 c 1.59167,0 2.52795,0 2.52795,-1.6853 0,-1.21717 -0.74902,-1.21717 -2.3407,-1.21717 h -7.30298 l 2.9961,-15.16773 c 0.74902,-3.46424 1.77893,-8.42652 5.14954,-8.42652 0.74902,0 2.71521,0.18725 3.93237,1.6853 -2.80884,0.46814 -4.11963,2.71521 -4.11963,4.58777 0,2.05982 1.6853,2.9961 3.18335,2.9961 2.3407,0 4.681401,-1.87256 4.681401,-5.14954 z"
         style="font-style:italic;font-variant:normal;font-weight:normal;font-stretch:normal;font-size:93.628px;line-height:1.25;font-family:'Latin Modern Roman';-inkscape-font-specification:'Latin Modern Roman, Italic';fill:#0b609a;fill-opacity:1;stroke:none;stroke-width:11.0845"
         id="path1591" />
      <path
         d="m -59.705345,670.55658 c 0,-0.34594 -0.553509,-1.10701 -1.107018,-1.10701 -0.276754,0 -0.345943,0.0692 -0.899452,0.76107 -5.119956,6.50373 -11.277741,6.78048 -12.453947,6.78048 -3.736185,0 -5.4659,-3.11348 -5.4659,-7.12642 0,-3.667 1.868092,-10.9318 3.666996,-14.25285 2.49079,-4.49726 5.95022,-6.91886 9.063706,-6.91886 0.761075,0 3.874562,0.13837 4.912391,2.97511 -3.45943,0.41513 -3.45943,3.39024 -3.45943,3.39024 0,1.10701 0.761075,2.21403 2.352412,2.21403 1.868093,0 3.528619,-1.52215 3.528619,-4.15131 0,-3.39025 -2.97511,-5.95022 -7.40318,-5.95022 -8.579386,0 -17.504716,9.82478 -17.504716,19.92631 0,6.84967 4.082128,11.41612 10.170724,11.41612 8.856141,0 14.598795,-6.91886 14.598795,-7.95669 z"
         style="font-style:italic;font-variant:normal;font-weight:normal;font-stretch:normal;font-size:69.1886px;line-height:1.25;font-family:'Latin Modern Roman';-inkscape-font-specification:'Latin Modern Roman, Italic';fill:#0b609a;fill-opacity:1;stroke:none;stroke-width:8.19113"
         id="path1594" />
      <path
         d="m -26.691573,667.85823 c 0,-0.69189 -0.553509,-0.69189 -1.037829,-0.69189 -0.830264,0 -0.899452,0.0692 -1.314584,1.59134 -0.96864,3.87456 -2.283224,8.23344 -4.635636,8.23344 -1.798904,0 -1.798904,-1.86809 -1.798904,-2.83673 0,-0.48432 0,-1.59134 0.484321,-3.52862 l 4.704824,-18.8193 c 0.276755,-0.96864 0.276755,-1.10701 0.276755,-1.45296 0,-1.45296 -1.176206,-1.7989 -1.868092,-1.7989 -2.214036,0 -2.698356,2.35241 -2.767544,2.69835 -1.314584,-2.97511 -3.528619,-4.08212 -5.742654,-4.08212 -7.679934,0 -15.844189,10.51666 -15.844189,20.6182 0,5.88103 3.182675,10.72423 8.37182,10.72423 2.49079,0 5.535088,-1.45296 8.302632,-4.8432 0.761075,3.39024 3.321053,4.8432 5.742654,4.8432 2.559978,0 4.012939,-1.72971 5.050768,-3.87456 1.245394,-2.62917 2.075658,-6.78048 2.075658,-6.78048 z m -12.38476,1.31458 c -0.553508,2.21404 -4.843202,7.81831 -8.648574,7.81831 -3.251865,0 -3.805373,-4.08212 -3.805373,-6.15778 0,-3.45943 2.144846,-11.5545 3.390241,-14.46042 1.729715,-4.2205 4.91239,-7.67993 7.749123,-7.67993 3.044298,0 4.774013,3.5978 4.774013,6.50372 0,0 -0.06919,0.48432 -0.207566,0.89946 z"
         style="font-style:italic;font-variant:normal;font-weight:normal;font-stretch:normal;font-size:69.1886px;line-height:1.25;font-family:'Latin Modern Roman';-inkscape-font-specification:'Latin Modern Roman, Italic';fill:#0b609a;fill-opacity:1;stroke:none;stroke-width:8.19113"
         id="path1596" />
      <path
         d="m 82.154469,667.85823 c 0,-0.69189 -0.553509,-0.69189 -1.037829,-0.69189 -0.899452,0 -0.899452,0.13838 -1.176206,1.17621 -0.553509,1.86809 -2.421601,8.64857 -6.43454,8.64857 -1.45296,0 -1.522149,-1.03783 -1.522149,-2.00647 0,-1.72971 0.691886,-3.52862 1.245395,-5.18914 1.383772,-3.667 4.220504,-11.41612 4.220504,-15.42906 0,-5.67346 -3.805372,-7.19561 -7.195614,-7.19561 -4.635636,0 -7.057237,2.4216 -9.202083,4.49726 l 5.050767,-20.20308 c 0.06919,-0.20756 0.207566,-0.89945 0.207566,-0.89945 0,-0.62269 -0.415132,-0.83026 -0.96864,-0.83026 -0.207566,0 -0.899452,0.0692 -1.107018,0.13838 l -6.849671,0.55351 c -0.830263,0.0692 -1.591338,0.13837 -1.591338,1.45296 0,0.76107 0.691886,0.76107 1.660526,0.76107 3.321053,0 3.45943,0.48432 3.45943,1.17621 0,0.20756 -0.207565,1.1762 -0.207565,1.1762 l -10.239913,40.82128 c -0.06919,0.13837 -0.138377,0.89945 -0.138377,0.89945 0,0.76107 0.622697,1.7989 1.937281,1.7989 1.45296,0 2.352412,-1.1762 2.559978,-1.93728 l 2.975109,-11.96963 c 0.345943,-1.52215 0.761075,-2.97511 1.107018,-4.49726 0.622697,-2.49078 0.691886,-2.62916 1.937281,-4.8432 1.383772,-2.21403 4.358881,-6.57291 9.202083,-6.57291 3.044299,0 3.182676,3.11348 3.182676,4.56644 0,4.2897 -3.044298,12.52314 -4.012939,15.29068 -0.899452,2.35242 -1.107017,2.97511 -1.107017,4.42807 0,3.0443 1.93728,5.53509 5.258333,5.53509 6.43454,0 8.786952,-10.3091 8.786952,-10.65504 z"
         style="font-style:italic;font-variant:normal;font-weight:normal;font-stretch:normal;font-size:69.1886px;line-height:1.25;font-family:'Latin Modern Roman';-inkscape-font-specification:'Latin Modern Roman, Italic';fill:#0b609a;fill-opacity:1;stroke:none;stroke-width:8.19113"
         id="path1599" />
      <path
         d="m 117.55957,667.85823 c 0,-0.69189 -0.55351,-0.69189 -1.03783,-0.69189 -0.83026,0 -0.89945,0.0692 -1.31458,1.59134 -0.96864,3.87456 -2.28323,8.23344 -4.63564,8.23344 -1.7989,0 -1.7989,-1.86809 -1.7989,-2.83673 0,-0.48432 0,-1.59134 0.48432,-3.52862 l 4.70482,-18.8193 c 0.27676,-0.96864 0.27676,-1.10701 0.27676,-1.45296 0,-1.45296 -1.17621,-1.7989 -1.86809,-1.7989 -2.21404,0 -2.69836,2.35241 -2.76755,2.69835 -1.31458,-2.97511 -3.52862,-4.08212 -5.74265,-4.08212 -7.679936,0 -15.844191,10.51666 -15.844191,20.6182 0,5.88103 3.182676,10.72423 8.371821,10.72423 2.490789,0 5.53509,-1.45296 8.30263,-4.8432 0.76108,3.39024 3.32105,4.8432 5.74266,4.8432 2.55997,0 4.01293,-1.72971 5.05076,-3.87456 1.2454,-2.62917 2.07566,-6.78048 2.07566,-6.78048 z m -12.38476,1.31458 c -0.55351,2.21404 -4.8432,7.81831 -8.648573,7.81831 -3.251864,0 -3.805373,-4.08212 -3.805373,-6.15778 0,-3.45943 2.144847,-11.5545 3.390241,-14.46042 1.729715,-4.2205 4.912395,-7.67993 7.749125,-7.67993 3.0443,0 4.77401,3.5978 4.77401,6.50372 0,0 -0.0692,0.48432 -0.20756,0.89946 z"
         style="font-style:italic;font-variant:normal;font-weight:normal;font-stretch:normal;font-size:69.1886px;line-height:1.25;font-family:'Latin Modern Roman';-inkscape-font-specification:'Latin Modern Roman, Italic';fill:#0b609a;fill-opacity:1;stroke:none;stroke-width:8.19113"
         id="path1601" />
      <path
         id="path1372"
         d="m 33.174014,662.84206 -9.25447,-9.25442 v 6.94081 h -34.70406 v 4.62721 h 34.70406 v 6.9408 z"
         style="fill:#0b609a;fill-opacity:1;stroke-width:10.9561" />
      <path
         d="m 82.154469,667.85823 c 0,-0.69189 -0.553509,-0.69189 -1.037829,-0.69189 -0.899452,0 -0.899452,0.13838 -1.176206,1.17621 -0.553509,1.86809 -2.421601,8.64857 -6.43454,8.64857 -1.45296,0 -1.522149,-1.03783 -1.522149,-2.00647 0,-1.72971 0.691886,-3.52862 1.245395,-5.18914 1.383772,-3.667 4.220504,-11.41612 4.220504,-15.42906 0,-5.67346 -3.805372,-7.19561 -7.195614,-7.19561 -4.635636,0 -7.057237,2.4216 -9.202083,4.49726 l 5.050767,-20.20308 c 0.06919,-0.20756 0.207566,-0.89945 0.207566,-0.89945 0,-0.62269 -0.415132,-0.83026 -0.96864,-0.83026 -0.207566,0 -0.899452,0.0692 -1.107018,0.13838 l -6.849671,0.55351 c -0.830263,0.0692 -1.591338,0.13837 -1.591338,1.45296 0,0.76107 0.691886,0.76107 1.660526,0.76107 3.321053,0 3.45943,0.48432 3.45943,1.17621 0,0.20756 -0.207565,1.1762 -0.207565,1.1762 l -10.239913,40.82128 c -0.06919,0.13837 -0.138377,0.89945 -0.138377,0.89945 0,0.76107 0.622697,1.7989 1.937281,1.7989 1.45296,0 2.352412,-1.1762 2.559978,-1.93728 l 2.975109,-11.96963 c 0.345943,-1.52215 0.761075,-2.97511 1.107018,-4.49726 0.622697,-2.49078 0.691886,-2.62916 1.937281,-4.8432 1.383772,-2.21403 4.358881,-6.57291 9.202083,-6.57291 3.044299,0 3.182676,3.11348 3.182676,4.56644 0,4.2897 -3.044298,12.52314 -4.012939,15.29068 -0.899452,2.35242 -1.107017,2.97511 -1.107017,4.42807 0,3.0443 1.93728,5.53509 5.258333,5.53509 6.43454,0 8.786952,-10.3091 8.786952,-10.65504 z"
         style="font-style:italic;font-variant:normal;font-weight:normal;font-stretch:normal;font-size:69.1886px;line-height:1.25;font-family:'Latin Modern Roman';-inkscape-font-specification:'Latin Modern Roman, Italic';fill:#0b609a;fill-opacity:1;stroke:none;stroke-width:8.19113"
         id="path1604" />
      <path
         d="m 117.55957,667.85823 c 0,-0.69189 -0.55351,-0.69189 -1.03783,-0.69189 -0.83026,0 -0.89945,0.0692 -1.31458,1.59134 -0.96864,3.87456 -2.28323,8.23344 -4.63564,8.23344 -1.7989,0 -1.7989,-1.86809 -1.7989,-2.83673 0,-0.48432 0,-1.59134 0.48432,-3.52862 l 4.70482,-18.8193 c 0.27676,-0.96864 0.27676,-1.10701 0.27676,-1.45296 0,-1.45296 -1.17621,-1.7989 -1.86809,-1.7989 -2.21404,0 -2.69836,2.35241 -2.76755,2.69835 -1.31458,-2.97511 -3.52862,-4.08212 -5.74265,-4.08212 -7.679936,0 -15.844191,10.51666 -15.844191,20.6182 0,5.88103 3.182676,10.72423 8.371821,10.72423 2.490789,0 5.53509,-1.45296 8.30263,-4.8432 0.76108,3.39024 3.32105,4.8432 5.74266,4.8432 2.55997,0 4.01293,-1.72971 5.05076,-3.87456 1.2454,-2.62917 2.07566,-6.78048 2.07566,-6.78048 z m -12.38476,1.31458 c -0.55351,2.21404 -4.8432,7.81831 -8.648573,7.81831 -3.251864,0 -3.805373,-4.08212 -3.805373,-6.15778 0,-3.45943 2.144847,-11.5545 3.390241,-14.46042 1.729715,-4.2205 4.912395,-7.67993 7.749125,-7.67993 3.0443,0 4.77401,3.5978 4.77401,6.50372 0,0 -0.0692,0.48432 -0.20756,0.89946 z"
         style="font-style:italic;font-variant:normal;font-weight:normal;font-stretch:normal;font-size:69.1886px;line-height:1.25;font-family:'Latin Modern Roman';-inkscape-font-specification:'Latin Modern Roman, Italic';fill:#0b609a;fill-opacity:1;stroke:none;stroke-width:8.19113"
         id="path1606" />
      <path
         d="m 143.7108,656.59241 c 0,-0.19779 0,-0.32965 -1.12081,-1.45046 -8.24127,-8.30721 -10.35104,-20.76801 -10.35104,-30.85533 0,-11.47186 2.50535,-22.94371 10.61476,-31.18499 0.85709,-0.79116 0.85709,-0.92302 0.85709,-1.12081 0,-0.46151 -0.26372,-0.6593 -0.6593,-0.6593 -0.6593,0 -6.59302,4.48325 -10.4829,12.85638 -3.36244,7.25233 -4.1536,14.57058 -4.1536,20.10872 0,5.14255 0.72523,13.1201 4.35139,20.57022 3.95581,8.10941 9.62581,12.39487 10.28511,12.39487 0.39558,0 0.6593,-0.19779 0.6593,-0.6593 z"
         style="font-style:normal;font-variant:normal;font-weight:normal;font-stretch:normal;font-size:65.9302px;line-height:1.25;font-family:'Latin Modern Roman';-inkscape-font-specification:'Latin Modern Roman, ';fill:#0b609a;fill-opacity:1;stroke:none;stroke-width:7.80537"
         id="path1609" />
      <path
         d="m 178.75656,629.85568 c 0,-0.76815 -0.61451,-0.76815 -1.15221,-0.76815 -0.92178,0 -0.99859,0.0768 -1.38267,1.30585 -2.07399,6.60604 -5.91471,9.60181 -9.14092,9.60181 -1.53629,0 -3.61028,-0.92177 -3.61028,-4.91613 0,-1.84355 0.84496,-5.14657 1.45947,-7.75826 l 2.6117,-10.52359 c 1.0754,-3.99435 3.14939,-8.21915 6.75967,-8.21915 0.23045,0 2.15081,0 3.37984,1.0754 -3.07258,0.76815 -3.07258,3.6871 -3.07258,3.6871 0,0.99859 0.69133,2.45806 2.68851,2.45806 1.38266,0 3.76391,-1.0754 3.76391,-4.07117 0,-3.91754 -4.45524,-4.83931 -6.68286,-4.83931 -4.2248,0 -6.75968,3.76391 -7.52782,5.22339 -1.68992,-4.60887 -5.45383,-5.22339 -7.3742,-5.22339 -7.68145,0 -11.82943,10.0627 -11.82943,11.82943 0,0.76815 0.76815,0.76815 1.15222,0.76815 0.99859,0 0.99859,-0.0768 1.38266,-1.30585 2.07399,-6.60605 6.06834,-9.60181 9.14092,-9.60181 2.22763,0 3.6871,1.76673 3.6871,4.83931 0,1.84355 -0.92177,5.60746 -1.6131,8.4496 l -1.76674,6.99012 c -1.22903,4.99294 -2.84213,11.1381 -7.451,11.1381 -0.23045,0 -2.07399,0 -3.37984,-1.0754 2.30443,-0.61452 2.99576,-2.53488 2.99576,-3.6871 0,-1.99718 -1.6131,-2.45806 -2.61169,-2.45806 -1.92036,0 -3.84072,1.6131 -3.84072,4.14798 0,2.99576 3.22621,4.7625 6.75967,4.7625 3.6871,0 6.22198,-2.91895 7.52782,-5.22339 1.53629,4.37843 5.3002,5.22339 7.29738,5.22339 7.91189,0 11.82943,-10.29314 11.82943,-11.82943 z"
         style="font-style:italic;font-variant:normal;font-weight:normal;font-stretch:normal;font-size:76.8145px;line-height:1.25;font-family:'Latin Modern Roman';-inkscape-font-specification:'Latin Modern Roman, Italic';fill:#0b609a;fill-opacity:1;stroke:none;stroke-width:8.19113"
         id="path1612" />
      <path
         d="m 182.69244,656.59241 c 0,-0.19779 0,-0.32965 1.12081,-1.45046 8.24128,-8.30721 10.35104,-20.76801 10.35104,-30.85533 0,-11.47186 -2.50534,-22.94371 -10.61476,-31.18499 -0.85709,-0.79116 -0.85709,-0.92302 -0.85709,-1.12081 0,-0.46151 0.26372,-0.6593 0.6593,-0.6593 0.6593,0 6.59302,4.48325 10.4829,12.85638 3.36244,7.25233 4.15361,14.57058 4.15361,20.10872 0,5.14255 -0.72524,13.1201 -4.3514,20.57022 -3.95581,8.10941 -9.62581,12.39487 -10.28511,12.39487 -0.39558,0 -0.6593,-0.19779 -0.6593,-0.6593 z"
         style="font-style:normal;font-variant:normal;font-weight:normal;font-stretch:normal;font-size:65.9302px;line-height:1.25;font-family:'Latin Modern Roman';-inkscape-font-specification:'Latin Modern Roman, ';fill:#0b609a;fill-opacity:1;stroke:none;stroke-width:7.80537"
         id="path1615" />
      <path
         d="m 269.65907,617.57536 c 0,-1.38377 -1.31458,-1.38377 -2.28322,-1.38377 h -41.44397 c -0.96864,0 -2.28322,0 -2.28322,1.38377 0,1.38377 1.31458,1.38377 2.35241,1.38377 h 41.30559 c 1.03783,0 2.35241,0 2.35241,-1.38377 z m 0,13.42259 c 0,-1.38378 -1.31458,-1.38378 -2.35241,-1.38378 h -41.30559 c -1.03783,0 -2.35241,0 -2.35241,1.38378 0,1.38377 1.31458,1.38377 2.28322,1.38377 h 41.44397 c 0.96864,0 2.28322,0 2.28322,-1.38377 z"
         style="font-style:normal;font-variant:normal;font-weight:normal;font-stretch:normal;font-size:69.1886px;line-height:1.25;font-family:'Latin Modern Roman';-inkscape-font-specification:'Latin Modern Roman, ';fill:#0b609a;fill-opacity:1;stroke:none;stroke-width:8.19113"
         id="path1618" />
      <path
         d="m 337.37294,715.52116 v -0.35638 c 0,-0.59398 -0.47518,-1.18795 -1.18795,-1.18795 -9.26601,0 -15.68094,-9.6224 -15.68094,-21.26431 v -45.49848 c 0,-10.69155 -6.89011,-19.83877 -16.39371,-22.92744 9.5036,-3.08867 16.39371,-12.23588 16.39371,-22.92743 v -45.49849 c 0,-11.64191 6.41493,-21.2643 15.68094,-21.2643 0.71277,0 1.18795,-0.59398 1.18795,-1.18795 v -0.35639 c 0,-0.59397 -0.47518,-1.18795 -1.18795,-1.18795 h -0.23759 c -13.18625,0 -23.759,10.81035 -23.759,23.99659 v 45.49849 c 0,11.7607 -6.41493,21.62069 -15.68094,21.62069 -0.71277,0 -1.18795,0.47518 -1.18795,1.18795 v 0.23759 c 0,0.71277 0.47518,1.18795 1.18795,1.18795 9.26601,0 15.68094,9.85998 15.68094,21.62069 v 45.49848 c 0,13.18625 10.57275,23.99659 23.759,23.99659 h 0.23759 c 0.71277,0 1.18795,-0.59397 1.18795,-1.18795 z"
         style="font-style:normal;font-variant:normal;font-weight:normal;font-stretch:normal;font-size:118.795px;line-height:1.25;font-family:'Latin Modern Roman Dunhill';-inkscape-font-specification:'Latin Modern Roman Dunhill';fill:#0b609a;fill-opacity:1;stroke:none;stroke-width:13.6335"
         id="path1621" />
      <path
         d="m 900.12976,680.78487 c 0,-0.76814 -0.61451,-0.76814 -1.15221,-0.76814 -0.92178,0 -0.99859,0.0768 -1.38267,1.30585 -2.07399,6.60604 -5.91471,9.60181 -9.14092,9.60181 -1.53629,0 -3.61028,-0.92178 -3.61028,-4.91613 0,-1.84355 0.84496,-5.14657 1.45947,-7.75826 l 2.6117,-10.52359 c 1.0754,-3.99435 3.14939,-8.21915 6.75967,-8.21915 0.23045,0 2.15081,0 3.37984,1.0754 -3.07258,0.76815 -3.07258,3.6871 -3.07258,3.6871 0,0.99859 0.69133,2.45806 2.68851,2.45806 1.38266,0 3.76391,-1.0754 3.76391,-4.07117 0,-3.91754 -4.45524,-4.83931 -6.68286,-4.83931 -4.2248,0 -6.75968,3.76391 -7.52782,5.22339 -1.68992,-4.60887 -5.45383,-5.22339 -7.3742,-5.22339 -7.68145,0 -11.82943,10.0627 -11.82943,11.82943 0,0.76815 0.76815,0.76815 1.15222,0.76815 0.99859,0 0.99859,-0.0768 1.38266,-1.30585 2.07399,-6.60605 6.06834,-9.60181 9.14092,-9.60181 2.22762,0 3.6871,1.76673 3.6871,4.83931 0,1.84355 -0.92177,5.60746 -1.6131,8.4496 l -1.76674,6.99012 c -1.22903,4.99294 -2.84213,11.1381 -7.451,11.1381 -0.23045,0 -2.074,0 -3.37984,-1.0754 2.30443,-0.61452 2.99576,-2.53488 2.99576,-3.6871 0,-1.99718 -1.6131,-2.45806 -2.61169,-2.45806 -1.92036,0 -3.84072,1.6131 -3.84072,4.14798 0,2.99576 3.2262,4.7625 6.75967,4.7625 3.6871,0 6.22198,-2.91895 7.52782,-5.22339 1.53629,4.37843 5.3002,5.22339 7.29738,5.22339 7.91189,0 11.82943,-10.29315 11.82943,-11.82944 z"
         style="font-style:italic;font-variant:normal;font-weight:normal;font-stretch:normal;font-size:76.8145px;line-height:1.25;font-family:'Latin Modern Roman';-inkscape-font-specification:'Latin Modern Roman, Italic';fill:#0b609a;fill-opacity:1;stroke:none;stroke-width:8.19113"
         id="path1624" />
      <path
         d="m 972.17021,667.48345 c 0,-0.69961 -0.46641,-0.99112 -1.10773,-1.28263 l -32.29892,-15.21664 c -0.75791,-0.40811 -0.87452,-0.40811 -1.04942,-0.40811 -0.64131,0 -1.16603,0.52472 -1.16603,1.16603 0,0.52471 0.29151,0.87452 1.10773,1.28263 l 30.60818,14.45872 -30.60818,14.45872 c -0.81622,0.40811 -1.10773,0.75792 -1.10773,1.28263 0,0.64132 0.52472,1.16603 1.16603,1.16603 0.1749,0 0.29151,0 1.04942,-0.40811 l 32.29892,-15.21664 c 0.64132,-0.29151 1.10773,-0.58301 1.10773,-1.28263 z"
         style="font-style:normal;font-variant:normal;font-weight:normal;font-stretch:normal;font-size:58.3013px;line-height:1.25;font-family:'Latin Modern Roman';-inkscape-font-specification:'Latin Modern Roman, ';fill:#0b609a;fill-opacity:1;stroke:none;stroke-width:8.19113"
         id="path1627" />
      <path
         d="m 977.02926,699.85551 v -1.51582 h -40.48113 v 1.51582 z"
         style="font-style:normal;font-variant:normal;font-weight:normal;font-stretch:normal;font-size:56.0964px;line-height:1.25;font-family:'Latin Modern Roman';-inkscape-font-specification:'Latin Modern Roman, ';fill:#0b609a;fill-opacity:1;stroke:none;stroke-width:8.19113"
         id="path1630" />
      <path
         d="m 1033.9754,697.49451 v -2.14485 h -2.214 c -6.227,0 -6.4345,-0.76107 -6.4345,-3.32105 V 653.2138 c 0,-1.66052 0,-1.7989 -1.5914,-1.7989 -4.2897,4.42807 -10.3783,4.42807 -12.5923,4.42807 v 2.14485 c 1.3838,0 5.4659,0 9.0637,-1.79891 v 35.8397 c 0,2.49079 -0.2076,3.32105 -6.4345,3.32105 h -2.2141 v 2.14485 c 2.4216,-0.20757 8.441,-0.20757 11.2086,-0.20757 2.7675,0 8.7869,0 11.2085,0.20757 z"
         style="font-style:normal;font-variant:normal;font-weight:normal;font-stretch:normal;font-size:69.1886px;line-height:1.25;font-family:'Latin Modern Roman';-inkscape-font-specification:'Latin Modern Roman, ';fill:#0b609a;fill-opacity:1;stroke:none;stroke-width:8.19113"
         id="path1633" />
      <path
         d="m 1052.8639,693.82751 c 0,-2.00647 -1.6605,-3.66699 -3.667,-3.66699 -2.0064,0 -3.667,1.66052 -3.667,3.66699 0,2.00647 1.6606,3.667 3.667,3.667 2.0065,0 3.667,-1.66053 3.667,-3.667 z"
         style="font-style:normal;font-variant:normal;font-weight:normal;font-stretch:normal;font-size:69.1886px;line-height:1.25;font-family:'Latin Modern Roman';-inkscape-font-specification:'Latin Modern Roman, ';fill:#0b609a;fill-opacity:1;stroke:none;stroke-width:8.19113"
         id="path1635" />
      <path
         d="m 1089.8344,683.5876 c 0,-8.23344 -5.6734,-15.1523 -13.1458,-15.1523 -3.3211,0 -6.2962,1.10701 -8.787,3.52861 v -13.49177 c 1.3838,0.41513 3.667,0.89945 5.8811,0.89945 8.5102,0 13.3534,-6.29616 13.3534,-7.19562 0,-0.41513 -0.2076,-0.76107 -0.6919,-0.76107 0,0 -0.2076,0 -0.5535,0.20757 -1.3838,0.62269 -4.774,2.00647 -9.4097,2.00647 -2.7675,0 -5.9502,-0.48432 -9.2021,-1.93729 -0.5535,-0.20756 -0.8302,-0.20756 -0.8302,-0.20756 -0.6919,0 -0.6919,0.55351 -0.6919,1.66053 v 20.47982 c 0,1.2454 0,1.7989 0.9686,1.7989 0.4843,0 0.6227,-0.20756 0.8995,-0.62269 0.7611,-1.10702 3.321,-4.84321 8.9253,-4.84321 3.5978,0 5.3275,3.18268 5.881,4.42807 1.1071,2.55998 1.2454,5.25834 1.2454,8.71777 0,2.4216 0,6.57292 -1.6605,9.47884 -1.6605,2.69835 -4.2205,4.49726 -7.4032,4.49726 -5.0507,0 -8.9945,-3.667 -10.1707,-7.74913 0.2076,0.0692 0.4151,0.13838 1.1762,0.13838 2.2832,0 3.4594,-1.72972 3.4594,-3.39024 0,-1.66053 -1.1762,-3.39024 -3.4594,-3.39024 -0.9686,0 -3.3902,0.48432 -3.3902,3.66699 0,5.95022 4.774,12.66152 12.5231,12.66152 8.0259,0 15.0831,-6.64211 15.0831,-15.42906 z"
         style="font-style:normal;font-variant:normal;font-weight:normal;font-stretch:normal;font-size:69.1886px;line-height:1.25;font-family:'Latin Modern Roman';-inkscape-font-specification:'Latin Modern Roman, ';fill:#0b609a;fill-opacity:1;stroke:none;stroke-width:8.19113"
         id="path1637" />
      <path
         d="m 929.69837,571.86929 c 0,-0.76815 -0.61452,-0.76815 -1.15222,-0.76815 -0.92178,0 -0.99859,0.0768 -1.38266,1.30585 -2.07399,6.60604 -5.91472,9.60181 -9.14093,9.60181 -1.53629,0 -3.61028,-0.92177 -3.61028,-4.91613 0,-1.84355 0.84496,-5.14657 1.45948,-7.75826 l 2.61169,-10.52359 c 1.0754,-3.99435 3.14939,-8.21915 6.75968,-8.21915 0.23044,0 2.1508,0 3.37983,1.0754 -3.07258,0.76815 -3.07258,3.6871 -3.07258,3.6871 0,0.99859 0.69133,2.45806 2.68851,2.45806 1.38266,0 3.76391,-1.0754 3.76391,-4.07117 0,-3.91753 -4.45524,-4.83931 -6.68286,-4.83931 -4.2248,0 -6.75968,3.76391 -7.52782,5.22339 -1.68992,-4.60887 -5.45383,-5.22339 -7.37419,-5.22339 -7.68145,0 -11.82944,10.0627 -11.82944,11.82943 0,0.76815 0.76815,0.76815 1.15222,0.76815 0.99859,0 0.99859,-0.0768 1.38266,-1.30585 2.07399,-6.60604 6.06835,-9.60181 9.14093,-9.60181 2.22762,0 3.68709,1.76673 3.68709,4.83931 0,1.84355 -0.92177,5.60746 -1.6131,8.4496 l -1.76673,6.99012 c -1.22904,4.99294 -2.84214,11.1381 -7.45101,11.1381 -0.23044,0 -2.07399,0 -3.37984,-1.0754 2.30444,-0.61452 2.99577,-2.53488 2.99577,-3.6871 0,-1.99718 -1.61311,-2.45806 -2.6117,-2.45806 -1.92036,0 -3.84072,1.6131 -3.84072,4.14798 0,2.99577 3.22621,4.7625 6.75967,4.7625 3.6871,0 6.22198,-2.91895 7.52783,-5.22339 1.53629,4.37843 5.3002,5.22339 7.29737,5.22339 7.9119,0 11.82944,-10.29314 11.82944,-11.82943 z"
         style="font-style:italic;font-variant:normal;font-weight:normal;font-stretch:normal;font-size:76.8145px;line-height:1.25;font-family:'Latin Modern Roman';-inkscape-font-specification:'Latin Modern Roman, Italic';fill:#0b609a;fill-opacity:1;stroke:none;stroke-width:8.19113"
         id="path1640" />
      <path
         d="m 1009.4877,559.58891 c 0,-1.38377 -1.3146,-1.38377 -2.2832,-1.38377 h -41.44399 c -0.96864,0 -2.28323,0 -2.28323,1.38377 0,1.38377 1.31459,1.38377 2.35242,1.38377 h 41.3056 c 1.0378,0 2.3524,0 2.3524,-1.38377 z m 0,13.42259 c 0,-1.38378 -1.3146,-1.38378 -2.3524,-1.38378 h -41.3056 c -1.03783,0 -2.35242,0 -2.35242,1.38378 0,1.38377 1.31459,1.38377 2.28323,1.38377 h 41.44399 c 0.9686,0 2.2832,0 2.2832,-1.38377 z"
         style="font-style:normal;font-variant:normal;font-weight:normal;font-stretch:normal;font-size:69.1886px;line-height:1.25;font-family:'Latin Modern Roman';-inkscape-font-specification:'Latin Modern Roman, ';fill:#0b609a;fill-opacity:1;stroke:none;stroke-width:8.19113"
         id="path1643" />
      <path
         d="m 1063.7945,589.34003 v -2.14485 h -2.2141 c -6.2269,0 -6.4345,-0.76107 -6.4345,-3.32105 v -38.81481 c 0,-1.66052 0,-1.7989 -1.5913,-1.7989 -4.2897,4.42807 -10.3783,4.42807 -12.5924,4.42807 v 2.14485 c 1.3838,0 5.4659,0 9.0637,-1.79891 v 35.8397 c 0,2.49079 -0.2075,3.32105 -6.4345,3.32105 h -2.214 v 2.14485 c 2.4216,-0.20757 8.441,-0.20757 11.2085,-0.20757 2.7676,0 8.787,0 11.2086,0.20757 z"
         style="font-style:normal;font-variant:normal;font-weight:normal;font-stretch:normal;font-size:69.1886px;line-height:1.25;font-family:'Latin Modern Roman';-inkscape-font-specification:'Latin Modern Roman, ';fill:#0b609a;fill-opacity:1;stroke:none;stroke-width:8.19113"
         id="path1646" />
      <path
         d="m 481.44193,595.74243 v -2.14484 h -2.21404 c -6.22697,0 -6.43454,-0.76108 -6.43454,-3.32106 v -38.8148 c 0,-1.66053 0,-1.79891 -1.59134,-1.79891 -4.28969,4.42808 -10.37829,4.42808 -12.59232,4.42808 v 2.14484 c 1.38377,0 5.4659,0 9.06371,-1.7989 v 35.83969 c 0,2.49079 -0.20757,3.32106 -6.43454,3.32106 h -2.21404 v 2.14484 c 2.4216,-0.20756 8.44101,-0.20756 11.20855,-0.20756 2.76755,0 8.78696,0 11.20856,0.20756 z"
         style="font-style:normal;font-variant:normal;font-weight:normal;font-stretch:normal;font-size:69.1886px;line-height:1.25;font-family:'Latin Modern Roman';-inkscape-font-specification:'Latin Modern Roman, ';fill:#0b609a;fill-opacity:1;stroke:none;stroke-width:8.19113"
         id="path1649" />
      <path
         d="m 518.66539,581.62796 c 0,-8.78695 -6.15778,-15.42906 -13.83772,-15.42906 -4.70482,0 -7.2648,3.52862 -8.64857,6.84967 v -1.66053 c 0,-17.50471 8.57938,-19.9955 12.108,-19.9955 1.66053,0 4.56645,0.41513 6.0886,2.76754 -1.03783,0 -3.80537,0 -3.80537,3.11349 0,2.14485 1.66052,3.18268 3.18267,3.18268 1.10702,0 3.18268,-0.6227 3.18268,-3.32106 0,-4.15131 -3.0443,-7.47237 -8.78695,-7.47237 -8.85614,0 -18.19661,8.92533 -18.19661,24.21601 0,18.47336 8.02588,23.38575 14.46042,23.38575 7.67994,0 14.25285,-6.50373 14.25285,-15.63662 z m -6.22697,-0.0692 c 0,3.32105 0,6.78048 -1.17621,9.27127 -2.07565,4.15132 -5.25833,4.49726 -6.84967,4.49726 -4.35888,0 -6.43454,-4.15132 -6.84967,-5.18914 -1.24539,-3.25187 -1.24539,-8.78696 -1.24539,-10.03235 0,-5.39671 2.21403,-12.31557 8.441,-12.31557 1.10702,0 4.2897,0 6.43454,4.28969 1.2454,2.55998 1.2454,6.0886 1.2454,9.47884 z"
         style="font-style:normal;font-variant:normal;font-weight:normal;font-stretch:normal;font-size:69.1886px;line-height:1.25;font-family:'Latin Modern Roman';-inkscape-font-specification:'Latin Modern Roman, ';fill:#0b609a;fill-opacity:1;stroke:none;stroke-width:8.19113"
         id="path1651" />
      <path
         d="m 534.92471,592.07544 c 0,-2.00647 -1.66052,-3.667 -3.66699,-3.667 -2.00647,0 -3.667,1.66053 -3.667,3.667 0,2.00647 1.66053,3.66699 3.667,3.66699 2.00647,0 3.66699,-1.66052 3.66699,-3.66699 z"
         style="font-style:normal;font-variant:normal;font-weight:normal;font-stretch:normal;font-size:69.1886px;line-height:1.25;font-family:'Latin Modern Roman';-inkscape-font-specification:'Latin Modern Roman, ';fill:#0b609a;fill-opacity:1;stroke:none;stroke-width:8.19113"
         id="path1653" />
      <path
         d="m 572.44872,581.62796 c 0,-8.78695 -6.15779,-15.42906 -13.83772,-15.42906 -4.70483,0 -7.2648,3.52862 -8.64858,6.84967 v -1.66053 c 0,-17.50471 8.57939,-19.9955 12.10801,-19.9955 1.66052,0 4.56645,0.41513 6.0886,2.76754 -1.03783,0 -3.80538,0 -3.80538,3.11349 0,2.14485 1.66053,3.18268 3.18268,3.18268 1.10702,0 3.18267,-0.6227 3.18267,-3.32106 0,-4.15131 -3.04429,-7.47237 -8.78695,-7.47237 -8.85614,0 -18.1966,8.92533 -18.1966,24.21601 0,18.47336 8.02588,23.38575 14.46042,23.38575 7.67993,0 14.25285,-6.50373 14.25285,-15.63662 z m -6.22698,-0.0692 c 0,3.32105 0,6.78048 -1.1762,9.27127 -2.07566,4.15132 -5.25834,4.49726 -6.84967,4.49726 -4.35888,0 -6.43454,-4.15132 -6.84967,-5.18914 -1.2454,-3.25187 -1.2454,-8.78696 -1.2454,-10.03235 0,-5.39671 2.21404,-12.31557 8.44101,-12.31557 1.10702,0 4.28969,0 6.43454,4.28969 1.24539,2.55998 1.24539,6.0886 1.24539,9.47884 z"
         style="font-style:normal;font-variant:normal;font-weight:normal;font-stretch:normal;font-size:69.1886px;line-height:1.25;font-family:'Latin Modern Roman';-inkscape-font-specification:'Latin Modern Roman, ';fill:#0b609a;fill-opacity:1;stroke:none;stroke-width:8.19113"
         id="path1655" />
      <path
         d="m 607.04302,583.91118 c 0,-5.67346 -4.35888,-11.07017 -11.5545,-12.52314 5.67347,-1.86809 9.68641,-6.71129 9.68641,-12.17719 0,-5.67346 -6.0886,-9.54803 -12.73071,-9.54803 -6.98805,0 -12.24638,4.15132 -12.24638,9.40965 0,2.28323 1.52215,3.59781 3.52862,3.59781 2.14485,0 3.52862,-1.52215 3.52862,-3.52862 0,-3.45943 -3.25187,-3.45943 -4.28969,-3.45943 2.14484,-3.39024 6.71129,-4.28969 9.20208,-4.28969 2.83673,0 6.6421,1.52215 6.6421,7.74912 0,0.83027 -0.13837,4.8432 -1.93728,7.8875 -2.07565,3.32106 -4.42807,3.52862 -6.15778,3.59781 -0.55351,0.0692 -2.21404,0.20757 -2.69836,0.20757 -0.55351,0.0692 -1.03783,0.13837 -1.03783,0.83026 0,0.76107 0.48432,0.76107 1.66053,0.76107 h 3.0443 c 5.67346,0 8.23344,4.70483 8.23344,11.48531 0,9.40965 -4.77401,11.41612 -7.81831,11.41612 -2.97511,0 -8.16425,-1.17621 -10.58586,-5.25833 2.42161,0.34594 4.56645,-1.17621 4.56645,-3.80538 0,-2.49079 -1.86809,-3.87456 -3.87456,-3.87456 -1.66053,0 -3.87456,0.96864 -3.87456,4.01294 0,6.29616 6.43454,10.86261 13.9761,10.86261 8.44101,0 14.73717,-6.29616 14.73717,-13.3534 z"
         style="font-style:normal;font-variant:normal;font-weight:normal;font-stretch:normal;font-size:69.1886px;line-height:1.25;font-family:'Latin Modern Roman';-inkscape-font-specification:'Latin Modern Roman, ';fill:#0b609a;fill-opacity:1;stroke:none;stroke-width:8.19113"
         id="path1657" />
      <path
         d="m 641.63732,581.62796 c 0,-8.78695 -6.15779,-15.42906 -13.83772,-15.42906 -4.70483,0 -7.26481,3.52862 -8.64858,6.84967 v -1.66053 c 0,-17.50471 8.57939,-19.9955 12.10801,-19.9955 1.66052,0 4.56644,0.41513 6.08859,2.76754 -1.03783,0 -3.80537,0 -3.80537,3.11349 0,2.14485 1.66053,3.18268 3.18268,3.18268 1.10701,0 3.18267,-0.6227 3.18267,-3.32106 0,-4.15131 -3.0443,-7.47237 -8.78695,-7.47237 -8.85614,0 -18.1966,8.92533 -18.1966,24.21601 0,18.47336 8.02588,23.38575 14.46042,23.38575 7.67993,0 14.25285,-6.50373 14.25285,-15.63662 z m -6.22698,-0.0692 c 0,3.32105 0,6.78048 -1.1762,9.27127 -2.07566,4.15132 -5.25834,4.49726 -6.84967,4.49726 -4.35889,0 -6.43454,-4.15132 -6.84968,-5.18914 -1.24539,-3.25187 -1.24539,-8.78696 -1.24539,-10.03235 0,-5.39671 2.21403,-12.31557 8.44101,-12.31557 1.10702,0 4.28969,0 6.43454,4.28969 1.24539,2.55998 1.24539,6.0886 1.24539,9.47884 z"
         style="font-style:normal;font-variant:normal;font-weight:normal;font-stretch:normal;font-size:69.1886px;line-height:1.25;font-family:'Latin Modern Roman';-inkscape-font-specification:'Latin Modern Roman, ';fill:#0b609a;fill-opacity:1;stroke:none;stroke-width:8.19113"
         id="path1659" />
      <path
         d="m 677.20026,584.32631 v -2.14484 h -6.91886 v -31.48082 c 0,-1.38377 0,-1.7989 -1.10702,-1.7989 -0.6227,0 -0.83026,0 -1.38377,0.83026 l -21.2409,32.44946 v 2.14484 h 18.40416 v 6.01941 c 0,2.49079 -0.13837,3.25187 -5.25833,3.25187 h -1.45296 v 2.14484 c 2.83673,-0.20756 6.43454,-0.20756 9.34046,-0.20756 2.90592,0 6.57292,0 9.40965,0.20756 v -2.14484 h -1.45296 c -5.11996,0 -5.25833,-0.76108 -5.25833,-3.25187 v -6.01941 z m -11.83125,-2.14484 h -16.88202 l 16.88202,-25.80735 z"
         style="font-style:normal;font-variant:normal;font-weight:normal;font-stretch:normal;font-size:69.1886px;line-height:1.25;font-family:'Latin Modern Roman';-inkscape-font-specification:'Latin Modern Roman, ';fill:#0b609a;fill-opacity:1;stroke:none;stroke-width:8.19113"
         id="path1661" />
      <path
         d="m 693.25201,595.67324 c 0,-4.42807 -1.66052,-7.2648 -4.42807,-7.2648 -2.4216,0 -3.66699,1.86809 -3.66699,3.667 0,1.7989 1.1762,3.66699 3.66699,3.66699 1.03783,0 2.00647,-0.41513 2.76755,-1.10702 0.13837,5.4659 -1.79891,9.68641 -4.84321,12.93827 -0.41513,0.41513 -0.48432,0.48432 -0.48432,0.76108 0,0.48432 0.34595,0.76107 0.69189,0.76107 0.83026,0 6.29616,-5.4659 6.29616,-13.42259 z"
         style="font-style:normal;font-variant:normal;font-weight:normal;font-stretch:normal;font-size:69.1886px;line-height:1.25;font-family:'Latin Modern Roman';-inkscape-font-specification:'Latin Modern Roman, ';fill:#0b609a;fill-opacity:1;stroke:none;stroke-width:8.19113"
         id="path1663" />
      <path
         d="m 393.6839,680.54335 v -2.14484 h -6.91886 v -31.48082 c 0,-1.38377 0,-1.7989 -1.10702,-1.7989 -0.6227,0 -0.83026,0 -1.38377,0.83026 l -21.2409,32.44946 v 2.14484 h 18.40417 v 6.01941 c 0,2.49079 -0.13838,3.25187 -5.25834,3.25187 h -1.45296 v 2.14484 c 2.83674,-0.20756 6.43454,-0.20756 9.34046,-0.20756 2.90593,0 6.57292,0 9.40965,0.20756 v -2.14484 h -1.45296 c -5.11995,0 -5.25833,-0.76108 -5.25833,-3.25187 v -6.01941 z m -11.83125,-2.14484 h -16.88202 l 16.88202,-25.80735 z"
         style="font-style:normal;font-variant:normal;font-weight:normal;font-stretch:normal;font-size:69.1886px;line-height:1.25;font-family:'Latin Modern Roman';-inkscape-font-specification:'Latin Modern Roman, ';fill:#0b609a;fill-opacity:1;stroke:none;stroke-width:8.19113"
         id="path1666" />
      <path
         d="m 408.97458,688.29248 c 0,-2.00647 -1.66053,-3.667 -3.667,-3.667 -2.00647,0 -3.66699,1.66053 -3.66699,3.667 0,2.00647 1.66052,3.66699 3.66699,3.66699 2.00647,0 3.667,-1.66052 3.667,-3.66699 z"
         style="font-style:normal;font-variant:normal;font-weight:normal;font-stretch:normal;font-size:69.1886px;line-height:1.25;font-family:'Latin Modern Roman';-inkscape-font-specification:'Latin Modern Roman, ';fill:#0b609a;fill-opacity:1;stroke:none;stroke-width:8.19113"
         id="path1668" />
      <path
         d="m 443.86942,691.95947 v -2.14484 h -2.21404 c -6.22697,0 -6.43454,-0.76108 -6.43454,-3.32106 v -38.8148 c 0,-1.66053 0,-1.7989 -1.59134,-1.7989 -4.28969,4.42807 -10.37829,4.42807 -12.59232,4.42807 v 2.14484 c 1.38377,0 5.4659,0 9.06371,-1.7989 v 35.83969 c 0,2.49079 -0.20757,3.32106 -6.43454,3.32106 h -2.21404 v 2.14484 c 2.4216,-0.20756 8.44101,-0.20756 11.20855,-0.20756 2.76755,0 8.78696,0 11.20856,0.20756 z"
         style="font-style:normal;font-variant:normal;font-weight:normal;font-stretch:normal;font-size:69.1886px;line-height:1.25;font-family:'Latin Modern Roman';-inkscape-font-specification:'Latin Modern Roman, ';fill:#0b609a;fill-opacity:1;stroke:none;stroke-width:8.19113"
         id="path1670" />
      <path
         d="m 481.09288,680.12822 c 0,-5.67346 -4.35888,-11.07017 -11.55449,-12.52313 5.67346,-1.8681 9.6864,-6.7113 9.6864,-12.1772 0,-5.67346 -6.0886,-9.54802 -12.7307,-9.54802 -6.98805,0 -12.24638,4.15131 -12.24638,9.40965 0,2.28322 1.52215,3.5978 3.52862,3.5978 2.14484,0 3.52861,-1.52215 3.52861,-3.52862 0,-3.45943 -3.25186,-3.45943 -4.28969,-3.45943 2.14485,-3.39024 6.7113,-4.28969 9.20208,-4.28969 2.83674,0 6.64211,1.52215 6.64211,7.74912 0,0.83027 -0.13838,4.84321 -1.93728,7.8875 -2.07566,3.32106 -4.42807,3.52862 -6.15779,3.59781 -0.5535,0.0692 -2.21403,0.20757 -2.69835,0.20757 -0.55351,0.0692 -1.03783,0.13837 -1.03783,0.83026 0,0.76107 0.48432,0.76107 1.66053,0.76107 h 3.04429 c 5.67347,0 8.23345,4.70483 8.23345,11.48531 0,9.40965 -4.77402,11.41612 -7.81831,11.41612 -2.97511,0 -8.16426,-1.17621 -10.58586,-5.25833 2.4216,0.34594 4.56645,-1.17621 4.56645,-3.80538 0,-2.49078 -1.86809,-3.87456 -3.87456,-3.87456 -1.66053,0 -3.87457,0.96864 -3.87457,4.01294 0,6.29616 6.43454,10.86261 13.9761,10.86261 8.44101,0 14.73717,-6.29616 14.73717,-13.3534 z"
         style="font-style:normal;font-variant:normal;font-weight:normal;font-stretch:normal;font-size:69.1886px;line-height:1.25;font-family:'Latin Modern Roman';-inkscape-font-specification:'Latin Modern Roman, ';fill:#0b609a;fill-opacity:1;stroke:none;stroke-width:8.19113"
         id="path1672" />
      <path
         d="m 515.68718,677.845 c 0,-8.78695 -6.15778,-15.42906 -13.83772,-15.42906 -4.70482,0 -7.2648,3.52862 -8.64857,6.84967 v -1.66052 c 0,-17.50472 8.57938,-19.99551 12.108,-19.99551 1.66053,0 4.56645,0.41513 6.0886,2.76754 -1.03783,0 -3.80537,0 -3.80537,3.11349 0,2.14485 1.66052,3.18268 3.18267,3.18268 1.10702,0 3.18268,-0.6227 3.18268,-3.32106 0,-4.15131 -3.0443,-7.47236 -8.78695,-7.47236 -8.85614,0 -18.19661,8.92533 -18.19661,24.21601 0,18.47335 8.02588,23.38574 14.46042,23.38574 7.67994,0 14.25285,-6.50373 14.25285,-15.63662 z m -6.22697,-0.0692 c 0,3.32105 0,6.78048 -1.17621,9.27127 -2.07566,4.15132 -5.25833,4.49726 -6.84967,4.49726 -4.35888,0 -6.43454,-4.15131 -6.84967,-5.18914 -1.24539,-3.25187 -1.24539,-8.78696 -1.24539,-10.03235 0,-5.39671 2.21403,-12.31557 8.441,-12.31557 1.10702,0 4.2897,0 6.43454,4.28969 1.2454,2.55998 1.2454,6.0886 1.2454,9.47884 z"
         style="font-style:normal;font-variant:normal;font-weight:normal;font-stretch:normal;font-size:69.1886px;line-height:1.25;font-family:'Latin Modern Roman';-inkscape-font-specification:'Latin Modern Roman, ';fill:#0b609a;fill-opacity:1;stroke:none;stroke-width:8.19113"
         id="path1674" />
      <path
         d="m 551.25012,680.54335 v -2.14484 h -6.91886 v -31.48082 c 0,-1.38377 0,-1.7989 -1.10702,-1.7989 -0.62269,0 -0.83026,0 -1.38377,0.83026 l -21.2409,32.44946 v 2.14484 h 18.40417 v 6.01941 c 0,2.49079 -0.13838,3.25187 -5.25833,3.25187 h -1.45296 v 2.14484 c 2.83673,-0.20756 6.43454,-0.20756 9.34046,-0.20756 2.90592,0 6.57291,0 9.40965,0.20756 v -2.14484 h -1.45296 c -5.11996,0 -5.25834,-0.76108 -5.25834,-3.25187 v -6.01941 z m -11.83125,-2.14484 h -16.88202 l 16.88202,-25.80735 z"
         style="font-style:normal;font-variant:normal;font-weight:normal;font-stretch:normal;font-size:69.1886px;line-height:1.25;font-family:'Latin Modern Roman';-inkscape-font-specification:'Latin Modern Roman, ';fill:#0b609a;fill-opacity:1;stroke:none;stroke-width:8.19113"
         id="path1676" />
      <path
         d="m 597.74878,681.65218 c 0,-0.76814 -0.61451,-0.76814 -1.15222,-0.76814 -0.92177,0 -0.99858,0.0768 -1.38266,1.30585 -2.07399,6.60604 -5.91471,9.60181 -9.14092,9.60181 -1.53629,0 -3.61028,-0.92178 -3.61028,-4.91613 0,-1.84355 0.84496,-5.14657 1.45947,-7.75826 l 2.61169,-10.52359 c 1.07541,-3.99435 3.1494,-8.21915 6.75968,-8.21915 0.23044,0 2.15081,0 3.37984,1.0754 -3.07258,0.76815 -3.07258,3.6871 -3.07258,3.6871 0,0.99859 0.69133,2.45806 2.68851,2.45806 1.38266,0 3.76391,-1.0754 3.76391,-4.07117 0,-3.91754 -4.45524,-4.83931 -6.68287,-4.83931 -4.22479,0 -6.75967,3.76391 -7.52782,5.22339 -1.68992,-4.60887 -5.45383,-5.22339 -7.37419,-5.22339 -7.68145,0 -11.82943,10.0627 -11.82943,11.82943 0,0.76815 0.76814,0.76815 1.15222,0.76815 0.99859,0 0.99859,-0.0768 1.38266,-1.30585 2.07399,-6.60605 6.06834,-9.60181 9.14092,-9.60181 2.22762,0 3.6871,1.76673 3.6871,4.83931 0,1.84355 -0.92178,5.60746 -1.61311,8.4496 l -1.76673,6.99012 c -1.22903,4.99294 -2.84214,11.1381 -7.45101,11.1381 -0.23044,0 -2.07399,0 -3.37983,-1.0754 2.30443,-0.61452 2.99576,-2.53488 2.99576,-3.6871 0,-1.99718 -1.6131,-2.45806 -2.61169,-2.45806 -1.92036,0 -3.84073,1.6131 -3.84073,4.14798 0,2.99576 3.22621,4.7625 6.75968,4.7625 3.6871,0 6.22197,-2.91895 7.52782,-5.22339 1.53629,4.37843 5.3002,5.22339 7.29738,5.22339 7.91189,0 11.82943,-10.29315 11.82943,-11.82944 z"
         style="font-style:italic;font-variant:normal;font-weight:normal;font-stretch:normal;font-size:76.8145px;line-height:1.25;font-family:'Latin Modern Roman';-inkscape-font-specification:'Latin Modern Roman, Italic';fill:#0b609a;fill-opacity:1;stroke:none;stroke-width:8.19113"
         id="path1679" />
      <path
         d="m 678.58823,674.66232 c 0,-1.38377 -1.31459,-1.38377 -2.28323,-1.38377 h -19.30362 v -19.37281 c 0,-0.96864 0,-2.28322 -1.38377,-2.28322 -1.38377,0 -1.38377,1.31458 -1.38377,2.28322 v 19.37281 h -19.37281 c -0.96864,0 -2.28322,0 -2.28322,1.38377 0,1.38377 1.31458,1.38377 2.28322,1.38377 h 19.37281 v 19.37281 c 0,0.96864 0,2.28323 1.38377,2.28323 1.38377,0 1.38377,-1.31459 1.38377,-2.28323 V 676.04609 H 676.305 c 0.96864,0 2.28323,0 2.28323,-1.38377 z"
         style="font-style:normal;font-variant:normal;font-weight:normal;font-stretch:normal;font-size:69.1886px;line-height:1.25;font-family:'Latin Modern Roman';-inkscape-font-specification:'Latin Modern Roman, ';fill:#0b609a;fill-opacity:1;stroke:none;stroke-width:8.19113"
         id="path1682" />
      <path
         d="m 734.58451,691.95947 v -2.14484 h -2.21404 c -6.22697,0 -6.43454,-0.76108 -6.43454,-3.32106 v -38.8148 c 0,-1.66053 0,-1.7989 -1.59134,-1.7989 -4.28969,4.42807 -10.37829,4.42807 -12.59232,4.42807 v 2.14484 c 1.38377,0 5.4659,0 9.0637,-1.7989 v 35.83969 c 0,2.49079 -0.20756,3.32106 -6.43454,3.32106 h -2.21403 v 2.14484 c 2.4216,-0.20756 8.44101,-0.20756 11.20855,-0.20756 2.76755,0 8.78695,0 11.20856,0.20756 z"
         style="font-style:normal;font-variant:normal;font-weight:normal;font-stretch:normal;font-size:69.1886px;line-height:1.25;font-family:'Latin Modern Roman';-inkscape-font-specification:'Latin Modern Roman, ';fill:#0b609a;fill-opacity:1;stroke:none;stroke-width:8.19113"
         id="path1684" />
      <path
         d="m 771.25446,678.05256 c 0,-8.23344 -5.67346,-15.1523 -13.14583,-15.1523 -3.32105,0 -6.29616,1.10702 -8.78695,3.52862 V 652.9371 c 1.38377,0.41513 3.66699,0.89945 5.88103,0.89945 8.5102,0 13.3534,-6.29616 13.3534,-7.19561 0,-0.41513 -0.20757,-0.76107 -0.69189,-0.76107 0,0 -0.20756,0 -0.55351,0.20756 -1.38377,0.6227 -4.77401,2.00647 -9.40965,2.00647 -2.76754,0 -5.95022,-0.48432 -9.20208,-1.93728 -0.55351,-0.20757 -0.83026,-0.20757 -0.83026,-0.20757 -0.69189,0 -0.69189,0.55351 -0.69189,1.66053 v 20.47983 c 0,1.24539 0,1.7989 0.96864,1.7989 0.48432,0 0.6227,-0.20757 0.89945,-0.6227 0.76108,-1.10702 3.32106,-4.8432 8.92533,-4.8432 3.59781,0 5.32752,3.18268 5.88103,4.42807 1.10702,2.55998 1.2454,5.25833 1.2454,8.71776 0,2.42161 0,6.57292 -1.66053,9.47884 -1.66053,2.69836 -4.2205,4.49726 -7.40318,4.49726 -5.05077,0 -8.99452,-3.66699 -10.17072,-7.74912 0.20756,0.0692 0.41513,0.13838 1.1762,0.13838 2.28323,0 3.45943,-1.72972 3.45943,-3.39025 0,-1.66052 -1.1762,-3.39024 -3.45943,-3.39024 -0.96864,0 -3.39024,0.48432 -3.39024,3.667 0,5.95022 4.77401,12.66151 12.52314,12.66151 8.02588,0 15.08311,-6.6421 15.08311,-15.42906 z"
         style="font-style:normal;font-variant:normal;font-weight:normal;font-stretch:normal;font-size:69.1886px;line-height:1.25;font-family:'Latin Modern Roman';-inkscape-font-specification:'Latin Modern Roman, ';fill:#0b609a;fill-opacity:1;stroke:none;stroke-width:8.19113"
         id="path1686" />
      <path
         d="m 788.82837,691.89028 c 0,-4.42807 -1.66053,-7.2648 -4.42807,-7.2648 -2.4216,0 -3.667,1.86809 -3.667,3.667 0,1.7989 1.17621,3.66699 3.667,3.66699 1.03783,0 2.00647,-0.41513 2.76754,-1.10701 0.13838,5.46589 -1.7989,9.6864 -4.8432,12.93826 -0.41513,0.41513 -0.48432,0.48432 -0.48432,0.76108 0,0.48432 0.34594,0.76107 0.69188,0.76107 0.83027,0 6.29617,-5.4659 6.29617,-13.42259 z"
         style="font-style:normal;font-variant:normal;font-weight:normal;font-stretch:normal;font-size:69.1886px;line-height:1.25;font-family:'Latin Modern Roman';-inkscape-font-specification:'Latin Modern Roman, ';fill:#0b609a;fill-opacity:1;stroke:none;stroke-width:8.19113"
         id="path1688" />
    </g>
  </g>
</svg>
