<?xml version="1.0" encoding="UTF-8" standalone="no"?>
<svg
   xmlns:dc="http://purl.org/dc/elements/1.1/"
   xmlns:cc="http://creativecommons.org/ns#"
   xmlns:rdf="http://www.w3.org/1999/02/22-rdf-syntax-ns#"
   xmlns:svg="http://www.w3.org/2000/svg"
   xmlns="http://www.w3.org/2000/svg"
   xmlns:sodipodi="http://sodipodi.sourceforge.net/DTD/sodipodi-0.dtd"
   xmlns:inkscape="http://www.inkscape.org/namespaces/inkscape"
   inkscape:version="1.0 (4035a4fb49, 2020-05-01)"
   id="svg8"
   version="1.1"
   viewBox="0 0 293.46196 34.210504"
   height="129.29955"
   width="1109.1476"
   sodipodi:docname="dog-equation.svg">
  <defs
     id="defs2" />
  <sodipodi:namedview
     units="px"
     inkscape:pagecheckerboard="true"
     fit-margin-bottom="0"
     fit-margin-right="0"
     fit-margin-left="0"
     fit-margin-top="0"
     inkscape:showpageshadow="false"
     showgrid="false"
     inkscape:document-rotation="0"
     inkscape:current-layer="svg8"
     inkscape:document-units="px"
     inkscape:cy="155.12815"
     inkscape:cx="576.41856"
     inkscape:zoom="0.7"
     inkscape:pageshadow="2"
     inkscape:pageopacity="0"
     borderopacity="1.0"
     bordercolor="#666666"
     pagecolor="#262626"
     id="base"
     inkscape:window-width="1366"
     inkscape:window-height="745"
     inkscape:window-x="-8"
     inkscape:window-y="-8"
     inkscape:window-maximized="1" />
  <metadata
     id="metadata5">
    <rdf:RDF>
      <cc:Work
         rdf:about="">
        <dc:format>image/svg+xml</dc:format>
        <dc:type
           rdf:resource="http://purl.org/dc/dcmitype/StillImage" />
        <dc:title />
      </cc:Work>
    </rdf:RDF>
  </metadata>
  <g
     inkscape:export-ydpi="166.18167"
     inkscape:export-xdpi="166.18167"
     inkscape:export-filename="C:\Users\arshad\Desktop\dog-equation.png"
     id="g1255"
     transform="matrix(0.25000002,0,0,0.25000002,19.116405,-329.02728)"
     style="stroke-width:4">
    <path
       id="path1225"
       style="opacity:0.997;fill:#5e92d4;fill-opacity:0.101961;stroke-width:7.11304;stroke-linecap:square;stop-color:#000000"
       d="M -62.697249,1316.109 H 1083.6138 c 7.6277,0 13.7683,3.7142 13.7683,8.3279 v 120.1863 c 0,4.6135 -6.1406,8.3278 -13.7683,8.3278 H -62.697249 c -7.627674,0 -13.768365,-3.7142 -13.768365,-8.3278 v -120.1863 c 0,-4.6137 6.140691,-8.3279 13.768365,-8.3279 z" />
    <g
       aria-label="human_age = 16 ln(dog_age) + 31"
       id="text1075"
       style="font-style:normal;font-variant:normal;font-weight:normal;font-stretch:normal;font-size:69.1886px;line-height:1.25;font-family:'Latin Modern Roman';-inkscape-font-specification:'Latin Modern Roman, ';fill:#0b609a;fill-opacity:1;stroke:none;stroke-width:6.91884">
      <path
         d="m 4.1063582,1401.8271 v -2.1448 c -3.59780714,0 -5.3275221,0 -5.3967107,-2.0757 v -13.215 c 0,-5.9502 0,-8.095 -2.1448466,-10.5858 -0.9686403,-1.1762 -3.2518641,-2.56 -7.2648029,-2.56 -5.811842,0 -8.856141,4.1513 -9.963158,6.6421 h -0.06919 v -24.0776 l -9.963158,0.761 v 2.1449 c 4.843202,0 5.396711,0.4843 5.396711,3.8745 v 35.9781 c 0,3.1135 -0.761075,3.1135 -5.396711,3.1135 v 2.1448 l 7.818312,-0.2075 7.749123,0.2075 v -2.1448 c -4.635636,0 -5.396711,0 -5.396711,-3.1135 v -12.7307 c 0,-7.1956 4.912391,-11.0702 9.340461,-11.0702 4.3588816,0 5.1199562,3.7362 5.1199562,7.68 v 16.1209 c 0,3.1135 -0.7610746,3.1135 -5.3967112,3.1135 v 2.1448 l 7.8183121,-0.2075 z"
         style="font-style:normal;font-variant:normal;font-weight:normal;font-stretch:normal;font-family:'Latin Modern Roman';-inkscape-font-specification:'Latin Modern Roman, ';fill:#0b609a;fill-opacity:1;stroke-width:6.91884"
         id="path1129" />
      <path
         d="m 40.727666,1401.8271 v -2.1448 c -4.843202,0 -5.396711,-0.4843 -5.396711,-3.8746 v -24.5619 l -10.170724,0.7611 v 2.1448 c 4.843202,0 5.396711,0.4843 5.396711,3.8746 v 12.3155 c 0,6.0194 -3.321053,10.7243 -8.371821,10.7243 -5.811842,0 -6.088597,-3.2519 -6.088597,-6.8497 v -22.9706 l -10.1707236,0.7611 v 2.1448 c 5.3967106,0 5.3967106,0.2076 5.3967106,6.3654 v 10.3782 c 0,5.3968 0,11.6929 10.516667,11.6929 3.874562,0 6.91886,-1.9373 8.925329,-6.227 v 6.227 z"
         style="font-style:normal;font-variant:normal;font-weight:normal;font-stretch:normal;font-family:'Latin Modern Roman';-inkscape-font-specification:'Latin Modern Roman, ';fill:#0b609a;fill-opacity:1;stroke-width:6.91884"
         id="path1131" />
      <path
         d="m 98.47528,1401.8271 v -2.1448 c -3.597808,0 -5.327523,0 -5.396711,-2.0757 v -13.215 c 0,-5.9502 0,-8.095 -2.144847,-10.5858 -0.96864,-1.1762 -3.251864,-2.56 -7.264803,-2.56 -5.811842,0 -8.85614,4.1513 -10.032346,6.7805 -0.968641,-6.0194 -6.088597,-6.7805 -9.202084,-6.7805 -5.050768,0 -8.302632,2.9751 -10.239913,7.2648 v -7.2648 l -9.755592,0.7611 v 2.1448 c 4.843202,0 5.396711,0.4843 5.396711,3.8746 v 18.5425 c 0,3.1135 -0.761075,3.1135 -5.396711,3.1135 v 2.1448 l 7.818312,-0.2075 7.749123,0.2075 v -2.1448 c -4.635636,0 -5.396711,0 -5.396711,-3.1135 v -12.7307 c 0,-7.1956 4.912391,-11.0702 9.340461,-11.0702 4.358882,0 5.119956,3.7362 5.119956,7.68 v 16.1209 c 0,3.1135 -0.761074,3.1135 -5.396711,3.1135 v 2.1448 l 7.818312,-0.2075 7.749123,0.2075 v -2.1448 c -4.635636,0 -5.396711,0 -5.396711,-3.1135 v -12.7307 c 0,-7.1956 4.912391,-11.0702 9.340461,-11.0702 4.358882,0 5.119957,3.7362 5.119957,7.68 v 16.1209 c 0,3.1135 -0.761075,3.1135 -5.396711,3.1135 v 2.1448 l 7.818312,-0.2075 z"
         style="font-style:normal;font-variant:normal;font-weight:normal;font-stretch:normal;font-family:'Latin Modern Roman';-inkscape-font-specification:'Latin Modern Roman, ';fill:#0b609a;fill-opacity:1;stroke-width:6.91884"
         id="path1133" />
      <path
         d="m 134.03714,1395.6694 v -3.8746 h -1.72972 v 3.8746 c 0,4.0129 -1.72971,4.428 -2.49079,4.428 -2.28322,0 -2.55998,-3.1135 -2.55998,-3.4594 v -13.8377 c 0,-2.9059 0,-5.6043 -2.49078,-8.1643 -2.69836,-2.6983 -6.15779,-3.8053 -9.47884,-3.8053 -5.67347,0 -10.44748,3.2518 -10.44748,7.8183 0,2.0756 1.38377,3.2518 3.18267,3.2518 1.93729,0 3.18268,-1.3837 3.18268,-3.1826 0,-0.8303 -0.34594,-3.1135 -3.52862,-3.1827 1.86809,-2.4216 5.25833,-3.1827 7.47237,-3.1827 3.39024,0 7.33399,2.6984 7.33399,8.8561 v 2.56 c -3.52862,0.2076 -8.37182,0.4152 -12.7307,2.4908 -5.18915,2.3524 -6.91886,5.9502 -6.91886,8.9945 0,5.6043 6.71129,7.334 11.07018,7.334 4.56644,0 7.74912,-2.7675 9.0637,-6.0194 0.27676,2.7676 2.14485,5.6735 5.39671,5.6735 1.45296,0 5.67347,-0.9687 5.67347,-6.5729 z m -11.5545,-3.5287 c 0,6.573 -4.98158,8.9254 -8.09506,8.9254 -3.39025,0 -6.22698,-2.4216 -6.22698,-5.8811 0,-3.8053 2.90592,-9.548 14.32204,-9.9631 z"
         style="font-style:normal;font-variant:normal;font-weight:normal;font-stretch:normal;font-family:'Latin Modern Roman';-inkscape-font-specification:'Latin Modern Roman, ';fill:#0b609a;fill-opacity:1;stroke-width:6.91884"
         id="path1135" />
      <path
         d="m 171.53736,1401.8271 v -2.1448 c -3.59781,0 -5.32752,0 -5.39671,-2.0757 v -13.215 c 0,-5.9502 0,-8.095 -2.14485,-10.5858 -0.96864,-1.1762 -3.25186,-2.56 -7.2648,-2.56 -5.05077,0 -8.30263,2.9751 -10.23991,7.2648 v -7.2648 l -9.7556,0.7611 v 2.1448 c 4.8432,0 5.39671,0.4843 5.39671,3.8746 v 18.5425 c 0,3.1135 -0.76107,3.1135 -5.39671,3.1135 v 2.1448 l 7.81831,-0.2075 7.74913,0.2075 v -2.1448 c -4.63564,0 -5.39671,0 -5.39671,-3.1135 v -12.7307 c 0,-7.1956 4.91239,-11.0702 9.34046,-11.0702 4.35888,0 5.11995,3.7362 5.11995,7.68 v 16.1209 c 0,3.1135 -0.76107,3.1135 -5.39671,3.1135 v 2.1448 l 7.81831,-0.2075 z"
         style="font-style:normal;font-variant:normal;font-weight:normal;font-stretch:normal;font-family:'Latin Modern Roman';-inkscape-font-specification:'Latin Modern Roman, ';fill:#0b609a;fill-opacity:1;stroke-width:6.91884"
         id="path1137" />
      <path
         d="m 224.92609,1411.3752 v -1.7989 h -51.89145 v 1.7989 z"
         style="font-style:normal;font-variant:normal;font-weight:normal;font-stretch:normal;font-family:'Latin Modern Roman';-inkscape-font-specification:'Latin Modern Roman, ';fill:#0b609a;fill-opacity:1;stroke-width:6.91884"
         id="path1139" />
      <path
         d="m 259.03607,1395.6694 v -3.8746 h -1.72972 v 3.8746 c 0,4.0129 -1.72971,4.428 -2.49079,4.428 -2.28322,0 -2.55997,-3.1135 -2.55997,-3.4594 v -13.8377 c 0,-2.9059 0,-5.6043 -2.49079,-8.1643 -2.69836,-2.6983 -6.15779,-3.8053 -9.47884,-3.8053 -5.67347,0 -10.44748,3.2518 -10.44748,7.8183 0,2.0756 1.38377,3.2518 3.18268,3.2518 1.93728,0 3.18267,-1.3837 3.18267,-3.1826 0,-0.8303 -0.34594,-3.1135 -3.52862,-3.1827 1.8681,-2.4216 5.25834,-3.1827 7.47237,-3.1827 3.39024,0 7.33399,2.6984 7.33399,8.8561 v 2.56 c -3.52862,0.2076 -8.37182,0.4152 -12.7307,2.4908 -5.18914,2.3524 -6.91886,5.9502 -6.91886,8.9945 0,5.6043 6.7113,7.334 11.07018,7.334 4.56644,0 7.74912,-2.7675 9.0637,-6.0194 0.27676,2.7676 2.14485,5.6735 5.39671,5.6735 1.45296,0 5.67347,-0.9687 5.67347,-6.5729 z m -11.5545,-3.5287 c 0,6.573 -4.98158,8.9254 -8.09506,8.9254 -3.39024,0 -6.22698,-2.4216 -6.22698,-5.8811 0,-3.8053 2.90592,-9.548 14.32204,-9.9631 z"
         style="font-style:normal;font-variant:normal;font-weight:normal;font-stretch:normal;font-family:'Latin Modern Roman';-inkscape-font-specification:'Latin Modern Roman, ';fill:#0b609a;fill-opacity:1;stroke-width:6.91884"
         id="path1141" />
      <path
         d="m 293.07686,1373.875 c 0,-1.1763 -0.83026,-3.3903 -3.52862,-3.3903 -1.38377,0 -4.42807,0.4151 -7.33399,3.2519 -2.90592,-2.2832 -5.81184,-2.4908 -7.33399,-2.4908 -6.43454,0 -11.20855,4.774 -11.20855,10.1015 0,3.0443 1.52214,5.6735 3.25186,7.1264 -0.89945,1.0379 -2.14485,3.3211 -2.14485,5.7427 0,2.1448 0.89945,4.774 3.0443,6.1578 -4.15131,1.1762 -6.36535,4.1513 -6.36535,6.9188 0,4.9816 6.84967,8.787 15.29068,8.787 8.16426,0 15.35987,-3.5286 15.35987,-8.9253 0,-2.4216 -0.96864,-5.9502 -4.49726,-7.8875 -3.667,-1.9373 -7.67993,-1.9373 -11.90044,-1.9373 -1.72971,0 -4.70482,0 -5.18914,-0.069 -2.21404,-0.2768 -3.667,-2.4216 -3.667,-4.6356 0,-0.2768 0,-1.8681 1.17621,-3.2519 2.69835,1.9373 5.53509,2.1448 6.84967,2.1448 6.43454,0 11.20855,-4.774 11.20855,-10.1015 0,-2.56 -1.10702,-5.1199 -2.83673,-6.7113 2.49079,-2.3524 4.98158,-2.6983 6.22697,-2.6983 0,0 0.48432,0 0.69189,0.069 -0.76108,0.2767 -1.10702,1.0378 -1.10702,1.868 0,1.1762 0.89945,2.0065 2.00647,2.0065 0.69189,0 2.00647,-0.4843 2.00647,-2.0756 z m -12.17719,7.4723 c 0,1.8681 -0.0692,4.0822 -1.10702,5.8119 -0.55351,0.8302 -2.14485,2.7675 -4.91239,2.7675 -6.01941,0 -6.01941,-6.9189 -6.01941,-8.5102 0,-1.8681 0.0692,-4.0821 1.10702,-5.8118 0.55351,-0.8303 2.14484,-2.7676 4.91239,-2.7676 6.01941,0 6.01941,6.9189 6.01941,8.5102 z m 7.61074,25.9457 c 0,3.7362 -4.91239,7.1957 -11.69287,7.1957 -6.98805,0 -11.76206,-3.5287 -11.76206,-7.1957 0,-3.1826 2.62916,-5.7426 5.67346,-5.9502 h 4.08213 c 5.95022,0 13.69934,0 13.69934,5.9502 z"
         style="font-style:normal;font-variant:normal;font-weight:normal;font-stretch:normal;font-family:'Latin Modern Roman';-inkscape-font-specification:'Latin Modern Roman, ';fill:#0b609a;fill-opacity:1;stroke-width:6.91884"
         id="path1143" />
      <path
         d="m 322.82796,1393.5937 c 0,-0.6919 -0.55351,-0.8303 -0.89945,-0.8303 -0.6227,0 -0.76108,0.4152 -0.89946,0.9687 -2.4216,7.1264 -8.64857,7.1264 -9.34046,7.1264 -3.45943,0 -6.22697,-2.0756 -7.81831,-4.6356 -2.07566,-3.3211 -2.07566,-7.8875 -2.07566,-10.3783 h 19.30362 c 1.52215,0 1.72972,0 1.72972,-1.453 0,-6.8496 -3.73619,-13.5609 -12.38476,-13.5609 -8.02588,0 -14.39123,7.1264 -14.39123,15.775 0,9.2712 7.2648,15.9825 15.22149,15.9825 8.44101,0 11.5545,-7.6799 11.5545,-8.9945 z m -4.56645,-9.2021 h -16.3977 c 0.41513,-10.3091 6.22698,-12.0388 8.57939,-12.0388 7.12642,0 7.81831,9.3405 7.81831,12.0388 z"
         style="font-style:normal;font-variant:normal;font-weight:normal;font-stretch:normal;font-family:'Latin Modern Roman';-inkscape-font-specification:'Latin Modern Roman, ';fill:#0b609a;fill-opacity:1;stroke-width:6.91884"
         id="path1145" />
      <path
         d="m 397.78299,1377.8187 c 0,-1.3838 -1.31458,-1.3838 -2.28322,-1.3838 H 354.0558 c -0.96864,0 -2.28322,0 -2.28322,1.3838 0,1.3838 1.31458,1.3838 2.35241,1.3838 h 41.30559 c 1.03783,0 2.35241,0 2.35241,-1.3838 z m 0,13.4226 c 0,-1.3838 -1.31458,-1.3838 -2.35241,-1.3838 h -41.30559 c -1.03783,0 -2.35241,0 -2.35241,1.3838 0,1.3838 1.31458,1.3838 2.28322,1.3838 h 41.44397 c 0.96864,0 2.28322,0 2.28322,-1.3838 z"
         style="font-style:normal;font-variant:normal;font-weight:normal;font-stretch:normal;font-family:'Latin Modern Roman';-inkscape-font-specification:'Latin Modern Roman, ';fill:#0b609a;fill-opacity:1;stroke-width:6.91884"
         id="path1147" />
      <path
         d="m 453.77927,1401.8271 v -2.1448 h -2.21403 c -6.22698,0 -6.43454,-0.7611 -6.43454,-3.3211 v -38.8148 c 0,-1.6605 0,-1.7989 -1.59134,-1.7989 -4.28969,4.4281 -10.37829,4.4281 -12.59233,4.4281 v 2.1449 c 1.38378,0 5.4659,0 9.06371,-1.7989 v 35.8396 c 0,2.4908 -0.20756,3.3211 -6.43454,3.3211 h -2.21403 v 2.1448 c 2.4216,-0.2075 8.44101,-0.2075 11.20855,-0.2075 2.76754,0 8.78695,0 11.20855,0.2075 z"
         style="font-style:normal;font-variant:normal;font-weight:normal;font-stretch:normal;font-family:'Latin Modern Roman';-inkscape-font-specification:'Latin Modern Roman, ';fill:#0b609a;fill-opacity:1;stroke-width:6.91884"
         id="path1149" />
      <path
         d="m 491.00274,1387.7127 c 0,-8.787 -6.15779,-15.4291 -13.83772,-15.4291 -4.70483,0 -7.2648,3.5286 -8.64858,6.8497 v -1.6605 c 0,-17.5048 8.57939,-19.9955 12.10801,-19.9955 1.66052,0 4.56645,0.4151 6.0886,2.7675 -1.03783,0 -3.80538,0 -3.80538,3.1135 0,2.1448 1.66053,3.1827 3.18268,3.1827 1.10702,0 3.18267,-0.6227 3.18267,-3.3211 0,-4.1513 -3.04429,-7.4724 -8.78695,-7.4724 -8.85614,0 -18.1966,8.9254 -18.1966,24.2161 0,18.4733 8.02588,23.3857 14.46042,23.3857 7.67993,0 14.25285,-6.5037 14.25285,-15.6366 z m -6.22698,-0.069 c 0,3.321 0,6.7805 -1.1762,9.2713 -2.07566,4.1513 -5.25834,4.4972 -6.84967,4.4972 -4.35888,0 -6.43454,-4.1513 -6.84967,-5.1891 -1.2454,-3.2519 -1.2454,-8.787 -1.2454,-10.0324 0,-5.3967 2.21404,-12.3155 8.44101,-12.3155 1.10702,0 4.28969,0 6.43454,4.2896 1.24539,2.56 1.24539,6.0886 1.24539,9.4789 z"
         style="font-style:normal;font-variant:normal;font-weight:normal;font-stretch:normal;font-family:'Latin Modern Roman';-inkscape-font-specification:'Latin Modern Roman, ';fill:#0b609a;fill-opacity:1;stroke-width:6.91884"
         id="path1151" />
      <path
         d="m 534.72885,1401.8271 v -2.1448 c -4.63564,0 -5.39671,0 -5.39671,-3.1135 v -42.7585 l -9.96316,0.761 v 2.1449 c 4.8432,0 5.39671,0.4843 5.39671,3.8745 v 35.9781 c 0,3.1135 -0.76107,3.1135 -5.39671,3.1135 v 2.1448 l 7.67994,-0.2075 z"
         style="font-style:normal;font-variant:normal;font-weight:normal;font-stretch:normal;font-family:'Latin Modern Roman';-inkscape-font-specification:'Latin Modern Roman, ';fill:#0b609a;fill-opacity:1;stroke-width:6.91884"
         id="path1153" />
      <path
         d="m 573.29068,1401.8271 v -2.1448 c -3.5978,0 -5.32752,0 -5.39671,-2.0757 v -13.215 c 0,-5.9502 0,-8.095 -2.14484,-10.5858 -0.96864,-1.1762 -3.25187,-2.56 -7.26481,-2.56 -5.05076,0 -8.30263,2.9751 -10.23991,7.2648 v -7.2648 l -9.75559,0.7611 v 2.1448 c 4.8432,0 5.39671,0.4843 5.39671,3.8746 v 18.5425 c 0,3.1135 -0.76107,3.1135 -5.39671,3.1135 v 2.1448 l 7.81831,-0.2075 7.74912,0.2075 v -2.1448 c -4.63563,0 -5.39671,0 -5.39671,-3.1135 v -12.7307 c 0,-7.1956 4.91239,-11.0702 9.34046,-11.0702 4.35889,0 5.11996,3.7362 5.11996,7.68 v 16.1209 c 0,3.1135 -0.76107,3.1135 -5.39671,3.1135 v 2.1448 l 7.81831,-0.2075 z"
         style="font-style:normal;font-variant:normal;font-weight:normal;font-stretch:normal;font-family:'Latin Modern Roman';-inkscape-font-specification:'Latin Modern Roman, ';fill:#0b609a;fill-opacity:1;stroke-width:6.91884"
         id="path1155" />
      <path
         d="m 597.68939,1418.4324 c 0,-0.2076 0,-0.3459 -1.1762,-1.5221 -8.64858,-8.7178 -10.86261,-21.7944 -10.86261,-32.3803 0,-12.0388 2.62916,-24.0776 11.13936,-32.7262 0.89945,-0.8303 0.89945,-0.9686 0.89945,-1.1762 0,-0.4843 -0.27675,-0.6919 -0.69188,-0.6919 -0.69189,0 -6.91886,4.7048 -11.00099,13.4918 -3.52862,7.6107 -4.35888,15.2907 -4.35888,21.1025 0,5.3967 0.76107,13.7685 4.56645,21.5868 4.15131,8.5102 10.10153,13.0075 10.79342,13.0075 0.41513,0 0.69188,-0.2076 0.69188,-0.6919 z"
         style="font-style:normal;font-variant:normal;font-weight:normal;font-stretch:normal;font-family:'Latin Modern Roman';-inkscape-font-specification:'Latin Modern Roman, ';fill:#0b609a;fill-opacity:1;stroke-width:6.91884"
         id="path1157" />
      <path
         d="m 638.14202,1401.8271 v -2.1448 c -4.8432,0 -5.39671,-0.4843 -5.39671,-3.8746 v -41.9974 l -9.96316,0.761 v 2.1449 c 4.8432,0 5.39671,0.4843 5.39671,3.8745 v 14.9448 c -2.00647,-2.4908 -4.98158,-4.2897 -8.71776,-4.2897 -8.16425,0 -15.42906,6.7805 -15.42906,15.7058 0,8.787 6.78049,15.6366 14.66799,15.6366 4.42807,0 7.54155,-2.3524 9.27127,-4.5664 v 4.5664 z m -10.17072,-8.1642 c 0,1.2454 0,1.3838 -0.76108,2.56 -2.07565,3.321 -5.18914,4.8432 -8.16425,4.8432 -3.11349,0 -5.60428,-1.7989 -7.2648,-4.4281 -1.79891,-2.8367 -2.00647,-6.7805 -2.00647,-9.6172 0,-2.56 0.13837,-6.7113 2.14484,-9.8248 1.45296,-2.1448 4.08213,-4.4281 7.81831,-4.4281 2.42161,0 5.32753,1.0379 7.47237,4.1514 0.76108,1.1762 0.76108,1.3145 0.76108,2.5599 z"
         style="font-style:normal;font-variant:normal;font-weight:normal;font-stretch:normal;font-family:'Latin Modern Roman';-inkscape-font-specification:'Latin Modern Roman, ';fill:#0b609a;fill-opacity:1;stroke-width:6.91884"
         id="path1159" />
      <path
         d="m 672.78064,1387.0208 c 0,-8.8562 -6.91886,-16.1901 -15.29068,-16.1901 -8.64857,0 -15.35987,7.5415 -15.35987,16.1901 0,8.9253 7.19562,15.5674 15.29068,15.5674 8.37183,0 15.35987,-6.7805 15.35987,-15.5674 z m -5.74265,-0.5535 c 0,2.4908 0,6.227 -1.52215,9.2713 -1.52215,3.1134 -4.56645,5.1199 -8.02588,5.1199 -2.97511,0 -6.0194,-1.453 -7.8875,-4.6356 -1.72971,-3.0443 -1.72971,-7.2648 -1.72971,-9.7556 0,-2.6984 0,-6.4346 1.66052,-9.4789 1.8681,-3.1826 5.11996,-4.6356 7.8875,-4.6356 3.0443,0 6.01941,1.5222 7.81832,4.4973 1.7989,2.9751 1.7989,6.988 1.7989,9.6172 z"
         style="font-style:normal;font-variant:normal;font-weight:normal;font-stretch:normal;font-family:'Latin Modern Roman';-inkscape-font-specification:'Latin Modern Roman, ';fill:#0b609a;fill-opacity:1;stroke-width:6.91884"
         id="path1161" />
      <path
         d="m 708.34358,1373.875 c 0,-1.1763 -0.83026,-3.3903 -3.52862,-3.3903 -1.38377,0 -4.42807,0.4151 -7.33399,3.2519 -2.90592,-2.2832 -5.81184,-2.4908 -7.33399,-2.4908 -6.43454,0 -11.20855,4.774 -11.20855,10.1015 0,3.0443 1.52215,5.6735 3.25186,7.1264 -0.89945,1.0379 -2.14484,3.3211 -2.14484,5.7427 0,2.1448 0.89945,4.774 3.0443,6.1578 -4.15132,1.1762 -6.36536,4.1513 -6.36536,6.9188 0,4.9816 6.84968,8.787 15.29068,8.787 8.16426,0 15.35987,-3.5286 15.35987,-8.9253 0,-2.4216 -0.96864,-5.9502 -4.49726,-7.8875 -3.66699,-1.9373 -7.67993,-1.9373 -11.90043,-1.9373 -1.72972,0 -4.70483,0 -5.18915,-0.069 -2.21403,-0.2768 -3.667,-2.4216 -3.667,-4.6356 0,-0.2768 0,-1.8681 1.17621,-3.2519 2.69836,1.9373 5.53509,2.1448 6.84967,2.1448 6.43454,0 11.20856,-4.774 11.20856,-10.1015 0,-2.56 -1.10702,-5.1199 -2.83674,-6.7113 2.49079,-2.3524 4.98158,-2.6983 6.22698,-2.6983 0,0 0.48432,0 0.69188,0.069 -0.76107,0.2767 -1.10702,1.0378 -1.10702,1.868 0,1.1762 0.89946,2.0065 2.00647,2.0065 0.69189,0 2.00647,-0.4843 2.00647,-2.0756 z m -12.17719,7.4723 c 0,1.8681 -0.0692,4.0822 -1.10702,5.8119 -0.55351,0.8302 -2.14484,2.7675 -4.91239,2.7675 -6.01941,0 -6.01941,-6.9189 -6.01941,-8.5102 0,-1.8681 0.0692,-4.0821 1.10702,-5.8118 0.55351,-0.8303 2.14485,-2.7676 4.91239,-2.7676 6.01941,0 6.01941,6.9189 6.01941,8.5102 z m 7.61075,25.9457 c 0,3.7362 -4.91239,7.1957 -11.69288,7.1957 -6.98805,0 -11.76206,-3.5287 -11.76206,-7.1957 0,-3.1826 2.62917,-5.7426 5.67347,-5.9502 h 4.08212 c 5.95022,0 13.69935,0 13.69935,5.9502 z"
         style="font-style:normal;font-variant:normal;font-weight:normal;font-stretch:normal;font-family:'Latin Modern Roman';-inkscape-font-specification:'Latin Modern Roman, ';fill:#0b609a;fill-opacity:1;stroke-width:6.91884"
         id="path1163" />
      <path
         d="m 761.27286,1411.3752 v -1.7989 h -51.89145 v 1.7989 z"
         style="font-style:normal;font-variant:normal;font-weight:normal;font-stretch:normal;font-family:'Latin Modern Roman';-inkscape-font-specification:'Latin Modern Roman, ';fill:#0b609a;fill-opacity:1;stroke-width:6.91884"
         id="path1165" />
      <path
         d="m 795.38281,1395.6694 v -3.8746 h -1.72971 v 3.8746 c 0,4.0129 -1.72972,4.428 -2.49079,4.428 -2.28323,0 -2.55998,-3.1135 -2.55998,-3.4594 v -13.8377 c 0,-2.9059 0,-5.6043 -2.49079,-8.1643 -2.69836,-2.6983 -6.15779,-3.8053 -9.47884,-3.8053 -5.67347,0 -10.44748,3.2518 -10.44748,7.8183 0,2.0756 1.38377,3.2518 3.18268,3.2518 1.93728,0 3.18267,-1.3837 3.18267,-3.1826 0,-0.8303 -0.34594,-3.1135 -3.52862,-3.1827 1.8681,-2.4216 5.25834,-3.1827 7.47237,-3.1827 3.39024,0 7.33399,2.6984 7.33399,8.8561 v 2.56 c -3.52861,0.2076 -8.37182,0.4152 -12.7307,2.4908 -5.18914,2.3524 -6.91886,5.9502 -6.91886,8.9945 0,5.6043 6.7113,7.334 11.07018,7.334 4.56645,0 7.74912,-2.7675 9.0637,-6.0194 0.27676,2.7676 2.14485,5.6735 5.39672,5.6735 1.45296,0 5.67346,-0.9687 5.67346,-6.5729 z m -11.5545,-3.5287 c 0,6.573 -4.98157,8.9254 -8.09506,8.9254 -3.39024,0 -6.22698,-2.4216 -6.22698,-5.8811 0,-3.8053 2.90593,-9.548 14.32204,-9.9631 z"
         style="font-style:normal;font-variant:normal;font-weight:normal;font-stretch:normal;font-family:'Latin Modern Roman';-inkscape-font-specification:'Latin Modern Roman, ';fill:#0b609a;fill-opacity:1;stroke-width:6.91884"
         id="path1167" />
      <path
         d="m 829.4236,1373.875 c 0,-1.1763 -0.83026,-3.3903 -3.52862,-3.3903 -1.38377,0 -4.42807,0.4151 -7.33399,3.2519 -2.90592,-2.2832 -5.81184,-2.4908 -7.33399,-2.4908 -6.43454,0 -11.20855,4.774 -11.20855,10.1015 0,3.0443 1.52215,5.6735 3.25186,7.1264 -0.89945,1.0379 -2.14485,3.3211 -2.14485,5.7427 0,2.1448 0.89946,4.774 3.0443,6.1578 -4.15131,1.1762 -6.36535,4.1513 -6.36535,6.9188 0,4.9816 6.84967,8.787 15.29068,8.787 8.16426,0 15.35987,-3.5286 15.35987,-8.9253 0,-2.4216 -0.96864,-5.9502 -4.49726,-7.8875 -3.66699,-1.9373 -7.67993,-1.9373 -11.90044,-1.9373 -1.72971,0 -4.70482,0 -5.18914,-0.069 -2.21404,-0.2768 -3.667,-2.4216 -3.667,-4.6356 0,-0.2768 0,-1.8681 1.17621,-3.2519 2.69835,1.9373 5.53509,2.1448 6.84967,2.1448 6.43454,0 11.20855,-4.774 11.20855,-10.1015 0,-2.56 -1.10702,-5.1199 -2.83673,-6.7113 2.49079,-2.3524 4.98158,-2.6983 6.22697,-2.6983 0,0 0.48432,0 0.69189,0.069 -0.76108,0.2767 -1.10702,1.0378 -1.10702,1.868 0,1.1762 0.89945,2.0065 2.00647,2.0065 0.69189,0 2.00647,-0.4843 2.00647,-2.0756 z m -12.17719,7.4723 c 0,1.8681 -0.0692,4.0822 -1.10702,5.8119 -0.55351,0.8302 -2.14485,2.7675 -4.91239,2.7675 -6.01941,0 -6.01941,-6.9189 -6.01941,-8.5102 0,-1.8681 0.0692,-4.0821 1.10702,-5.8118 0.55351,-0.8303 2.14485,-2.7676 4.91239,-2.7676 6.01941,0 6.01941,6.9189 6.01941,8.5102 z m 7.61074,25.9457 c 0,3.7362 -4.91239,7.1957 -11.69287,7.1957 -6.98805,0 -11.76206,-3.5287 -11.76206,-7.1957 0,-3.1826 2.62916,-5.7426 5.67346,-5.9502 h 4.08213 c 5.95022,0 13.69934,0 13.69934,5.9502 z"
         style="font-style:normal;font-variant:normal;font-weight:normal;font-stretch:normal;font-family:'Latin Modern Roman';-inkscape-font-specification:'Latin Modern Roman, ';fill:#0b609a;fill-opacity:1;stroke-width:6.91884"
         id="path1169" />
      <path
         d="m 859.1747,1393.5937 c 0,-0.6919 -0.55351,-0.8303 -0.89945,-0.8303 -0.6227,0 -0.76108,0.4152 -0.89946,0.9687 -2.4216,7.1264 -8.64857,7.1264 -9.34046,7.1264 -3.45943,0 -6.22697,-2.0756 -7.81831,-4.6356 -2.07566,-3.3211 -2.07566,-7.8875 -2.07566,-10.3783 h 19.30362 c 1.52215,0 1.72972,0 1.72972,-1.453 0,-6.8496 -3.73619,-13.5609 -12.38476,-13.5609 -8.02588,0 -14.39123,7.1264 -14.39123,15.775 0,9.2712 7.2648,15.9825 15.22149,15.9825 8.44101,0 11.5545,-7.6799 11.5545,-8.9945 z m -4.56645,-9.2021 h -16.3977 c 0.41513,-10.3091 6.22698,-12.0388 8.57939,-12.0388 7.12642,0 7.81831,9.3405 7.81831,12.0388 z"
         style="font-style:normal;font-variant:normal;font-weight:normal;font-stretch:normal;font-family:'Latin Modern Roman';-inkscape-font-specification:'Latin Modern Roman, ';fill:#0b609a;fill-opacity:1;stroke-width:6.91884"
         id="path1171" />
      <path
         d="m 881.13235,1384.53 c 0,-5.3967 -0.76107,-13.7685 -4.56645,-21.5868 -4.15131,-8.5102 -10.10153,-13.0075 -10.79342,-13.0075 -0.41513,0 -0.69189,0.2768 -0.69189,0.6919 0,0.2076 0,0.3459 1.31459,1.5913 6.78048,6.8497 10.72423,17.8507 10.72423,32.3111 0,11.8312 -2.55998,24.0084 -11.13936,32.7262 -0.89946,0.8303 -0.89946,0.9686 -0.89946,1.1762 0,0.4151 0.27676,0.6919 0.69189,0.6919 0.69189,0 6.91886,-4.7048 11.00099,-13.4918 3.52862,-7.6107 4.35888,-15.2907 4.35888,-21.1025 z"
         style="font-style:normal;font-variant:normal;font-weight:normal;font-stretch:normal;font-family:'Latin Modern Roman';-inkscape-font-specification:'Latin Modern Roman, ';fill:#0b609a;fill-opacity:1;stroke-width:6.91884"
         id="path1173" />
      <path
         d="m 961.0214,1384.53 c 0,-1.3838 -1.31459,-1.3838 -2.28323,-1.3838 h -19.30362 v -19.3728 c 0,-0.9686 0,-2.2832 -1.38377,-2.2832 -1.38377,0 -1.38377,1.3146 -1.38377,2.2832 v 19.3728 H 917.2942 c -0.96864,0 -2.28322,0 -2.28322,1.3838 0,1.3838 1.31458,1.3838 2.28322,1.3838 h 19.37281 v 19.3728 c 0,0.9686 0,2.2832 1.38377,2.2832 1.38377,0 1.38377,-1.3146 1.38377,-2.2832 v -19.3728 h 19.30362 c 0.96864,0 2.28323,0 2.28323,-1.3838 z"
         style="font-style:normal;font-variant:normal;font-weight:normal;font-stretch:normal;font-family:'Latin Modern Roman';-inkscape-font-specification:'Latin Modern Roman, ';fill:#0b609a;fill-opacity:1;stroke-width:6.91884"
         id="path1175" />
      <path
         d="m 1019.6468,1389.9959 c 0,-5.6735 -4.3588,-11.0702 -11.5545,-12.5231 5.6735,-1.8681 9.6865,-6.7113 9.6865,-12.1772 0,-5.6735 -6.0886,-9.5481 -12.7308,-9.5481 -6.988,0 -12.24633,4.1514 -12.24633,9.4097 0,2.2832 1.52215,3.5978 3.52861,3.5978 2.14485,0 3.52862,-1.5222 3.52862,-3.5286 0,-3.4595 -3.25186,-3.4595 -4.28969,-3.4595 2.14485,-3.3902 6.71129,-4.2896 9.20209,-4.2896 2.8367,0 6.6421,1.5221 6.6421,7.7491 0,0.8302 -0.1384,4.8432 -1.9373,7.8875 -2.0756,3.321 -4.4281,3.5286 -6.1578,3.5978 -0.5535,0.069 -2.214,0.2076 -2.6983,0.2076 -0.5535,0.069 -1.03785,0.1383 -1.03785,0.8302 0,0.7611 0.48435,0.7611 1.66055,0.7611 h 3.0443 c 5.6734,0 8.2334,4.7048 8.2334,11.4853 0,9.4096 -4.774,11.4161 -7.8183,11.4161 -2.9751,0 -8.16425,-1.1762 -10.58585,-5.2583 2.4216,0.3459 4.56645,-1.1762 4.56645,-3.8054 0,-2.4908 -1.8681,-3.8746 -3.87456,-3.8746 -1.66053,0 -3.87457,0.9687 -3.87457,4.013 0,6.2962 6.43454,10.8626 13.97613,10.8626 8.441,0 14.7371,-6.2962 14.7371,-13.3534 z"
         style="font-style:normal;font-variant:normal;font-weight:normal;font-stretch:normal;font-family:'Latin Modern Roman';-inkscape-font-specification:'Latin Modern Roman, ';fill:#0b609a;fill-opacity:1;stroke-width:6.91884"
         id="path1177" />
      <path
         d="m 1051.612,1401.8271 v -2.1448 h -2.2141 c -6.2269,0 -6.4345,-0.7611 -6.4345,-3.3211 v -38.8148 c 0,-1.6605 0,-1.7989 -1.5913,-1.7989 -4.2897,4.4281 -10.3783,4.4281 -12.5924,4.4281 v 2.1449 c 1.3838,0 5.4659,0 9.0637,-1.7989 v 35.8396 c 0,2.4908 -0.2075,3.3211 -6.4345,3.3211 h -2.214 v 2.1448 c 2.4216,-0.2075 8.441,-0.2075 11.2085,-0.2075 2.7676,0 8.787,0 11.2086,0.2075 z"
         style="font-style:normal;font-variant:normal;font-weight:normal;font-stretch:normal;font-family:'Latin Modern Roman';-inkscape-font-specification:'Latin Modern Roman, ';fill:#0b609a;fill-opacity:1;stroke-width:6.91884"
         id="path1179" />
    </g>
  </g>
</svg>
