<?xml version="1.0" encoding="UTF-8" standalone="no"?>
<svg
   xmlns:dc="http://purl.org/dc/elements/1.1/"
   xmlns:cc="http://creativecommons.org/ns#"
   xmlns:rdf="http://www.w3.org/1999/02/22-rdf-syntax-ns#"
   xmlns:svg="http://www.w3.org/2000/svg"
   xmlns="http://www.w3.org/2000/svg"
   xmlns:sodipodi="http://sodipodi.sourceforge.net/DTD/sodipodi-0.dtd"
   xmlns:inkscape="http://www.inkscape.org/namespaces/inkscape"
   sodipodi:docname="dog-tongue.svg"
   width="310.89706"
   height="274.4501"
   viewBox="0 0 82.25818 72.614923"
   version="1.1"
   id="svg8"
   inkscape:version="1.0 (4035a4fb49, 2020-05-01)">
  <defs
     id="defs2" />
  <sodipodi:namedview
     inkscape:window-maximized="0"
     inkscape:window-y="0"
     inkscape:window-x="26"
     inkscape:window-height="729"
     inkscape:window-width="1261"
     id="base"
     pagecolor="#262626"
     bordercolor="#666666"
     borderopacity="1.0"
     inkscape:pageopacity="0"
     inkscape:pageshadow="2"
     inkscape:zoom="0.35"
     inkscape:cx="135.44855"
     inkscape:cy="388.65361"
     inkscape:document-units="px"
     inkscape:current-layer="svg8"
     inkscape:document-rotation="0"
     showgrid="false"
     inkscape:showpageshadow="false"
     fit-margin-top="0"
     fit-margin-left="0"
     fit-margin-right="0"
     fit-margin-bottom="0"
     inkscape:pagecheckerboard="true"
     units="px" />
  <metadata
     id="metadata5">
    <rdf:RDF>
      <cc:Work
         rdf:about="">
        <dc:format>image/svg+xml</dc:format>
        <dc:type
           rdf:resource="http://purl.org/dc/dcmitype/StillImage" />
        <dc:title></dc:title>
      </cc:Work>
    </rdf:RDF>
  </metadata>
  <g
     transform="translate(-234.50785,-588.84142)"
     id="g1308">
    <path
       style="fill:#b7d2d2;fill-opacity:1;fill-rule:evenodd;stroke:none;stroke-width:0.555634"
       d="m 255.55042,588.96208 c 3.46574,4.55722 6.83299,9.106 9.15017,15.08261 2.31714,5.97943 -15.57084,16.21699 -15.57084,16.21699 0,0 3.69115,-24.42567 6.42067,-31.2996"
       id="path1464" />
    <path
       id="path1466"
       d="m 295.72347,588.96208 c -3.46574,4.55722 -6.83299,9.106 -9.15017,15.08261 -2.31714,5.97943 15.57084,16.21699 15.57084,16.21699 0,0 -3.69115,-24.42567 -6.42067,-31.2996"
       style="fill:#b7d2d2;fill-opacity:1;fill-rule:evenodd;stroke:none;stroke-width:0.555634" />
    <rect
       style="fill:#579e9e;fill-opacity:1;stroke-width:2.28775;stroke-linecap:square;stop-color:#000000"
       id="rect1468"
       width="56.885414"
       height="56.885414"
       x="247.19423"
       y="604.57092"
       rx="6.614583"
       ry="28.442707" />
    <path
       style="fill:#4c4c4c;fill-opacity:1;fill-rule:evenodd;stroke:none;stroke-width:0.51386"
       d="m 263.59841,631.86903 c 1.99723,0 3.62631,-2.66139 3.62631,-5.92694 0,-3.26556 -1.62908,-5.92695 -3.62631,-5.92695 -1.9973,0 -3.62632,2.66139 -3.62632,5.92695 0,3.26555 1.62902,5.92694 3.62632,5.92694"
       id="path1470" />
    <path
       style="fill:#ffffff;fill-opacity:1;fill-rule:evenodd;stroke:none;stroke-width:0.597523"
       d="m 262.85956,625.46666 c 0.71189,0 1.29304,-0.58118 1.29304,-1.29307 0,-0.71191 -0.58115,-1.29075 -1.29304,-1.29075 -0.71189,0 -1.29309,0.57884 -1.29309,1.29075 0,0.71189 0.5812,1.29307 1.29309,1.29307"
       id="path1472" />
    <path
       id="path1474"
       d="m 287.67549,631.86903 c 1.99724,0 3.62631,-2.66139 3.62631,-5.92694 0,-3.26556 -1.62907,-5.92695 -3.62631,-5.92695 -1.9973,0 -3.62631,2.66139 -3.62631,5.92695 0,3.26555 1.62901,5.92694 3.62631,5.92694"
       style="fill:#4c4c4c;fill-opacity:1;fill-rule:evenodd;stroke:none;stroke-width:0.51386" />
    <path
       id="path1476"
       d="m 286.93665,625.46666 c 0.71189,0 1.29304,-0.58118 1.29304,-1.29307 0,-0.71191 -0.58115,-1.29075 -1.29304,-1.29075 -0.71189,0 -1.29309,0.57884 -1.29309,1.29075 0,0.71189 0.5812,1.29307 1.29309,1.29307"
       style="fill:#ffffff;fill-opacity:1;fill-rule:evenodd;stroke:none;stroke-width:0.597523" />
    <path
       id="path1478"
       style="fill:#dfecec;fill-opacity:1;fill-rule:evenodd;stroke:none;stroke-width:0.359063"
       d="m 274.68145,604.5709 c -1.17,2.5155 -2.02572,10.52409 -2.02572,20.02205 0,5.67391 -2.39669,8.13634 -4.39973,10.20506 -3.32242,3.43138 -6.79855,6.98818 -6.79855,12.09694 0,7.8096 6.37042,14.17896 14.18001,14.17896 7.80963,0 14.17898,-6.36936 14.17898,-14.17896 0,-5.18769 -3.53083,-8.80388 -6.9882,-12.2096 -2.0236,-1.99337 -4.35736,-4.49749 -4.35736,-10.0924 0,-9.49796 -0.8552,-17.50655 -2.0252,-20.02205 z" />
    <path
       id="path1480"
       d="m 281.76852,640.74309 c 0,3.68212 -4.42627,6.81027 -6.19704,8.21862 -1.77214,-1.40835 -6.19841,-4.5365 -6.19841,-8.21862 0,-3.75791 12.39545,-3.75515 12.39545,0"
       style="fill:#4c4c4c;fill-opacity:1;fill-rule:evenodd;stroke:none;stroke-width:0.352778" />
    <path
       id="path1482"
       d="m 280.31265,640.67622 c -1.27466,-0.7524 -2.31786,-1.44831 -4.80935,-1.27468"
       style="fill:none;stroke:#979797;stroke-width:0.846667;stroke-linecap:round;stroke-linejoin:round;stroke-miterlimit:22.926;stroke-opacity:1" />
    <path
       style="fill:#478585;fill-opacity:1;fill-rule:evenodd;stroke:none;stroke-width:0.446306"
       d="m 234.51001,608.67266 c 0.14753,2.45156 17.59041,14.57467 20.02694,12.26997 2.88357,-2.7289 3.23225,-29.67146 1.1713,-31.90884 -2.06095,-2.2374 -21.43519,15.7005 -21.19824,19.63887"
       id="path1484" />
    <path
       id="path1486"
       d="m 316.76388,608.67266 c -0.14753,2.45156 -17.59041,14.57467 -20.02694,12.26997 -2.88357,-2.7289 -3.23225,-29.67146 -1.1713,-31.90884 2.06095,-2.2374 21.43519,15.7005 21.19824,19.63887"
       style="fill:#478585;fill-opacity:1;fill-rule:evenodd;stroke:none;stroke-width:0.446306" />
    <path
       style="fill:#4c4c4c;fill-opacity:1;fill-rule:evenodd;stroke:none;stroke-width:0.372968"
       d="m 281.41149,655.63631 c 0,-0.0586 0,-0.11553 0,-0.17406 -1.68536,-0.14479 -3.20118,-0.96884 -4.32703,-2.22725 -0.60636,-0.67773 -1.09968,-1.48177 -1.44558,-2.37359 -0.34728,0.89182 -0.8406,1.69586 -1.44696,2.37359 -1.12585,1.25841 -2.64029,2.08246 -4.32565,2.22725 0,0.0586 -0.004,0.11552 -0.004,0.17406 0,7.25321 11.54935,7.24705 11.54935,0"
       id="path1488" />
    <path
       style="fill:#ff7070;fill-opacity:1;fill-rule:evenodd;stroke:none;stroke-width:0.353356"
       d="m 279.23327,654.17221 v 3.72732 c 0,4.23251 -7.19266,4.23251 -7.19266,0 v -3.72732 c 0.76976,-0.32287 1.46635,-0.76031 2.06047,-1.28888 0.64391,-0.57285 1.16781,-1.25245 1.53659,-2.00495 0.36732,0.7525 0.89122,1.4321 1.53513,2.00495 0.59413,0.52857 1.29071,0.96601 2.06047,1.28888"
       id="path1490"
       sodipodi:nodetypes="csscscsc" />
    <g
       id="g1496"
       transform="translate(5.1503077,288.67373)">
      <path
         style="fill:#4c4c4c;fill-opacity:1;fill-rule:nonzero;stroke:none;stroke-width:0.361654"
         d="m 269.83984,359.85468 c 0,-0.32068 0.25995,-0.58062 0.58063,-0.58062 0.32068,0 0.58064,0.25994 0.58064,0.58062 0,1.94531 -0.78971,3.70555 -2.064,4.97981 -1.27425,1.27425 -3.03449,2.06255 -4.97978,2.06255 -1.94531,0 -3.70555,-0.7883 -4.9798,-2.06255 -1.27429,-1.27426 -2.06254,-3.0345 -2.06254,-4.97981 0,-0.32068 0.25992,-0.58062 0.57918,-0.58062 0.32068,0 0.58063,0.25994 0.58063,0.58062 0,1.62462 0.65833,3.09525 1.7235,4.16043 1.06377,1.06378 2.5344,1.7221 4.15903,1.7221 1.62461,0 3.09524,-0.65832 4.15901,-1.7221 1.06518,-1.06518 1.7235,-2.53581 1.7235,-4.16043"
         id="path1492" />
      <path
         style="fill:#4c4c4c;fill-opacity:1;fill-rule:nonzero;stroke:none;stroke-width:0.361654"
         d="m 269.83984,359.85468 c 0,-0.32068 0.25995,-0.58062 0.58063,-0.58062 0.32068,0 0.58064,0.25994 0.58064,0.58062 0,1.62462 0.65832,3.09525 1.72208,4.16043 1.06519,1.06378 2.53581,1.7221 4.15902,1.7221 1.62462,0 3.09525,-0.65832 4.16042,-1.7221 1.06377,-1.06518 1.7221,-2.53581 1.7221,-4.16043 0,-0.32068 0.25995,-0.58062 0.58063,-0.58062 0.32068,0 0.58063,0.25994 0.58063,0.58062 0,1.94531 -0.7883,3.70555 -2.06399,4.97981 -1.27283,1.27425 -3.03449,2.06255 -4.97979,2.06255 -1.94389,0 -3.70554,-0.7883 -4.97979,-2.06255 -1.27429,-1.27426 -2.06258,-3.0345 -2.06258,-4.97981"
         id="path1494" />
    </g>
  </g>
</svg>
